<?xml version="1.0" standalone="no"?>
<!DOCTYPE svg PUBLIC "-//W3C//DTD SVG 1.1//EN" "http://www.w3.org/Graphics/SVG/1.1/DTD/svg11.dtd" >
<!--
2017-8-17: Created with FontForge (http://fontforge.org)
-->
<svg xmlns="http://www.w3.org/2000/svg" xmlns:xlink="http://www.w3.org/1999/xlink" version="1.1">
<metadata>
Created by FontForge 20161116 at Thu Aug 17 18:42:35 2017
 By LeiX
Copyright (c) 2017, LeiX
</metadata>
<defs>
<font id="fontcustom" horiz-adv-x="512" >
  <font-face 
    font-family="fontcustom"
    font-weight="400"
    font-stretch="normal"
    units-per-em="512"
    panose-1="2 0 5 3 0 0 0 0 0 0"
    ascent="448"
    descent="-64"
    bbox="-0.0126953 -64 512.312 448"
    underline-thickness="25.6"
    underline-position="-51.2"
    unicode-range="U+0020-F17D"
  />
    <missing-glyph />
    <glyph glyph-name="space" unicode=" " horiz-adv-x="200" 
 />
    <glyph glyph-name="uniF11C" unicode="&#xf11c;" 
d="M255.981 85.3086c-5.43164 -0.00292969 -10.8564 2.06348 -15 6.20605l-135.897 135.898c-8.29492 8.29395 -8.32227 21.7139 0.0664062 30.1035c8.33105 8.33105 21.7959 8.37402 30.1035 0.0664062l99.4131 -99.4131v204.528c0 11.7646 9.46875 21.3018 21.333 21.3018
c11.7822 0 21.333 -9.54688 21.333 -21.3018v-204.528l99.4131 99.4131c8.30762 8.30762 21.7725 8.26465 30.1035 -0.0664062c8.38867 -8.38965 8.36133 -21.8096 0.0664062 -30.1035l-135.897 -135.898c-4.14355 -4.14258 -9.56836 -6.20898 -15 -6.20605h-0.0371094z
M85.333 42.667c0 11.7822 9.48535 21.333 21.3525 21.333h298.629c11.793 0 21.3525 -9.46875 21.3525 -21.333c0 -11.7822 -9.70703 -21.334 -21.4961 -21.334h-69.21h-229.259c-11.8018 0 -21.3691 9.46973 -21.3691 21.334z" />
    <glyph glyph-name="uniF156" unicode="&#xf156;" 
d="M345.824 100.338l-23.0928 23.0938l57.7324 57.749l-57.7324 57.749l23.0928 23.0928l80.8428 -80.8418l-80.8428 -80.8428v0zM207.005 42.3604l67.9238 277.64h29.8545l-67.9072 -277.64h-29.8711v0zM166.176 100.338l-57.749 57.749v0l-23.0938 23.0938
l23.0938 23.0928v0l57.749 57.749l23.0928 -23.0928l-57.7324 -57.749l57.7324 -57.749l-23.0928 -23.0938v0z" />
    <glyph glyph-name="uniF151" unicode="&#xf151;" 
d="M410.46 207.126c13.9482 -8.35254 13.9531 -21.8926 0 -30.249l-289.203 -173.188c-13.9492 -8.35352 -25.2568 -2.04883 -25.2568 14.1367v348.352c0 16.1602 11.3027 22.4922 25.2568 14.1367z" />
    <glyph glyph-name="uniF142" unicode="&#xf142;" 
d="M149.333 277.333v-192h-21.333v202.667v32h234.667v-42.667h-213.334zM383.443 85.333h0.556641v-21.333h-256v21.333h234.667v234.667h21.333zM213.333 192h128v-21.333h-128v21.333zM170.667 234.667h170.666v-21.334h-170.666v21.334zM213.333 149.333h128v-21.333
h-128v21.333z" />
    <glyph glyph-name="uniF128" unicode="&#xf128;" 
d="M162.667 362.667h138.666l104 -108.801v-217.6c0 -19.9463 -15.5996 -36.2666 -34.666 -36.2666h-208.174c-19.0664 0 -34.4932 16.3203 -34.4932 36.2666l0.172852 290.134c0 19.9463 15.4268 36.2666 34.4941 36.2666zM341.333 78.2227v0v35.5547h-149.333v-35.5547
h149.333zM341.333 149.333v0v35.5557h-149.333v-35.5557h149.333zM288 238.223v0h97.7773l-97.7773 97.7773v-97.7773z" />
    <glyph glyph-name="uniF100" unicode="&#xf100;" 
d="M480 160h-192v-192h-64v192h-192v64h192v192h64v-192h192v-64z" />
    <glyph glyph-name="uniF14A" unicode="&#xf14a;" 
d="M407.678 77.2695l83.6162 -83.6162c8.57617 -8.57617 8.63965 -22.4639 0 -31.1045c-8.6084 -8.60742 -22.5918 -8.54395 -31.1045 -0.03125l-83.6162 83.6475l-37.9199 -74.4004c-8.06348 -15.8398 -20.3516 -15.3916 -27.2314 0.480469l-116.832 270.432
c-6.97656 16.1279 0.671875 23.4248 16.5762 16.5762l270.399 -116.864c16.1279 -6.94336 16.416 -19.1035 0.480469 -27.1992zM185.907 64.1152l27.7119 -64.1279h-149.439c-35.4561 0 -64.1924 28.7041 -64.1924 64.1924v319.647
c0 35.4238 28.7041 64.1602 64.1924 64.1602h319.647c35.4238 0 64.1602 -28.7041 64.1602 -64.1602v-149.76l-64.0645 27.7119l0.0644531 122.048l-0.160156 0.160156h-319.647l-0.192383 -319.808z" />
    <glyph glyph-name="uniF165" unicode="&#xf165;" 
d="M240 -64c-132.548 0 -240 107.452 -240 240s107.452 240 240 240s240 -107.452 240 -240s-107.452 -240 -240 -240zM240 -32c114.875 0 208 93.125 208 208s-93.125 208 -208 208s-208 -93.125 -208 -208s93.125 -208 208 -208zM256 192h128v-32h-128v-128h-32v128h-128
v32h128v128h32v-128z" />
    <glyph glyph-name="uniF13A" unicode="&#xf13a;" 
d="M301.244 125.204c-5.57422 -10.9219 -2.35645 -25.5566 12.0889 -36.252l24.0439 -17.8018l-8.98828 -28.5342c-2.52246 -8.00781 -2.56348 -15.2598 -0.78125 -21.2812l-70.5654 -0.00195312h-1.04102h-1.04102l-120.867 0.00195312
c-18.7178 0 -31.915 18.5088 -25.9961 36.4316c1.26074 3.82227 2.92383 7.75781 5.0918 11.7139c4.92188 8.9834 21.4336 23.9238 56.1611 32.7646c15.1885 3.86719 46.5684 14.5576 46.3701 38.3613c-0.129883 25.9307 -7.04785 30.8115 -15.1992 42.4795
c-7.4707 10.6904 -16.5508 40.9834 -17.7754 54.5488c-1.3584 15.0293 -4.12207 41.4326 8.68066 65.249c8.69141 16.168 30.1104 38.4492 64.5752 38.4492s55.8838 -22.2812 64.5752 -38.4492c12.8027 -23.8164 10.0371 -50.2197 8.68066 -65.249
c-1.22461 -13.5654 -10.3047 -43.8584 -17.7754 -54.5488c-8.15332 -11.668 -15.0723 -16.5488 -15.1992 -42.4795c-0.0498047 -5.91016 1.84863 -11.0127 4.96191 -15.4023zM396.54 54.4033l-36.7441 -26.1934c-9.63379 -6.86816 -14.5781 -3.3418 -11.0068 7.99707
l13.5566 43.04l-36.2656 26.8506c-9.50879 7.04004 -7.68262 12.833 4.2041 12.9404l45.123 0.40625l14.3301 42.7881c3.75684 11.2188 9.83105 11.2725 13.6055 0l14.3301 -42.7881l45.123 -0.40625c11.8301 -0.106445 13.7578 -5.86621 4.2041 -12.9404l-36.2656 -26.8506
l13.5566 -43.04c3.55469 -11.2842 -1.32715 -14.8975 -11.0068 -7.99707z" />
    <glyph glyph-name="uniF12D" unicode="&#xf12d;" 
d="M384 64v187.008l-42.667 42.667v-44.9492c0 -23.5312 -19.1357 -42.667 -42.666 -42.667h-85.334c-23.5303 0 -42.666 19.1357 -42.666 42.667v64c0 2.49609 0.319336 4.90625 0.724609 7.27441h-43.3916v-256h256zM298.688 248.726l-0.0214844 64h-85.334v-64h85.3555z
M332.693 362.667l93.9736 -93.9736v-225.643c0 -11.9893 -9.72852 -21.7178 -21.7178 -21.7178h-297.898c-11.9893 0 -21.7178 9.72852 -21.7178 21.7178v297.898c0 11.9893 9.72852 21.7178 21.7178 21.7178h225.643z" />
    <glyph glyph-name="uniF16C" unicode="&#xf16c;" 
d="M123.259 170.667h265.482c9.125 0 16.5918 -7.2002 16.5918 -16v-96c0 -8.80078 -7.4668 -16 -16.5918 -16h-265.482c-9.125 0 -16.5918 7.19922 -16.5918 16v96c0 8.7998 7.4668 16 16.5918 16zM139.852 109.037c0 -18.252 14.9336 -33.1855 33.1855 -33.1855
s33.1855 14.9336 33.1855 33.1855s-14.9336 33.1855 -33.1855 33.1855s-33.1855 -14.9336 -33.1855 -33.1855zM123.259 341.333h265.482c9.125 0 16.5918 -7.19922 16.5918 -16v-96c0 -8.7998 -7.4668 -16 -16.5918 -16h-265.482c-9.125 0 -16.5918 7.2002 -16.5918 16v96
c0 8.80078 7.4668 16 16.5918 16zM139.852 274.963c0 -18.252 14.9336 -33.1855 33.1855 -33.1855s33.1855 14.9336 33.1855 33.1855s-14.9336 33.1855 -33.1855 33.1855s-33.1855 -14.9336 -33.1855 -33.1855z" />
    <glyph glyph-name="uniF144" unicode="&#xf144;" 
d="M405.333 128h21.334c11.7822 0 21.333 -9.55078 21.333 -21.333v-64c0 -11.7822 -9.55078 -21.334 -21.333 -21.334h-64c-11.7822 0 -21.334 9.55176 -21.334 21.334v64c0 11.7822 9.55176 21.333 21.334 21.333h21.333v42.667h-106.667v-42.667h21.334
c11.7822 0 21.333 -9.55078 21.333 -21.333v-64c0 -11.7822 -9.55078 -21.334 -21.333 -21.334h-64c-11.7822 0 -21.334 9.55176 -21.334 21.334v64c0 11.7822 9.55176 21.333 21.334 21.333h21.333v42.667h-128v21.333h128v42.667h-21.333
c-11.7822 0 -21.334 9.55078 -21.334 21.333v64c0 11.7822 9.55176 21.333 21.334 21.333h64c11.7822 0 21.333 -9.55078 21.333 -21.333v-64c0 -11.7822 -9.55078 -21.333 -21.333 -21.333h-21.334v-42.667h117.334h10.666v-64zM128 128v42.667h21.333v-42.667h21.334
c11.7822 0 21.333 -9.55078 21.333 -21.333v-64c0 -11.7822 -9.55078 -21.334 -21.333 -21.334h-64c-11.7822 0 -21.334 9.55176 -21.334 21.334v64c0 11.7822 9.55176 21.333 21.334 21.333h21.333z" />
    <glyph glyph-name="uniF169" unicode="&#xf169;" 
d="M337.777 238.223h17.7783c19.5557 0 35.5557 -16 35.5557 -35.5557v-142.223c0 -19.5557 -16 -35.5557 -35.5557 -35.5557h-213.333c-19.5557 0 -35.5557 16 -35.5557 35.5557v142.223c0 19.5557 16 35.5557 35.5557 35.5557h17.7773v35.5547
c0 49.0674 39.8223 88.8896 88.8887 88.8896s88.8887 -39.8223 88.8887 -88.8896v-35.5547zM248.889 96v0c19.5557 0 35.5557 16 35.5557 35.5557s-16 35.5557 -35.5557 35.5557s-35.5557 -16 -35.5557 -35.5557s16 -35.5557 35.5557 -35.5557zM304 238.223v0v35.5547
c0 30.4004 -24.7109 55.1113 -55.1113 55.1113c-30.3994 0 -55.1113 -24.7109 -55.1113 -55.1113v-35.5547h110.223z" />
    <glyph glyph-name="uniF178" unicode="&#xf178;" 
d="M256 32c-82.4746 0 -157.142 53.333 -224 160c66.8584 106.667 141.525 160 224 160s157.142 -53.333 224 -160c-66.8584 -106.667 -141.525 -160 -224 -160zM256 96c53.0195 0 96 42.9805 96 96s-42.9805 96 -96 96s-96 -42.9805 -96 -96s42.9805 -96 96 -96zM256 128
c-35.3467 0 -64 28.6533 -64 64s28.6533 64 64 64s64 -28.6533 64 -64s-28.6533 -64 -64 -64z" />
    <glyph glyph-name="uniF152" unicode="&#xf152;" 
d="M448 0v263.36l-64 65.6953v-70.3359c0 -19.168 -18.3359 -34.7197 -40.0322 -34.7197h-143.936c-22.1123 0 -40.0322 15.3281 -40.0322 34.7197v93.2803h-63.8721c-0.0634766 0 -0.12793 -352 -0.12793 -352h352zM352 352h-160v-93.2803
c0 -0.511719 2.55957 -2.71973 8.03223 -2.71973h143.936c5.15234 0 8.03223 2.49609 8.03223 2.71973v93.2803zM375.136 384l104.864 -107.648v-276.512c0 -17.5996 -14.3359 -31.8398 -31.9678 -31.8398h-352.064c-17.6641 0 -31.9678 14.3359 -31.9678 31.9678v352.097
c0 17.6318 14.1758 31.9355 32.1279 31.9355h63.8721h214.24h0.895508z" />
    <glyph glyph-name="uniF14C" unicode="&#xf14c;" 
d="M128 384h64v-384h-64v384zM320 384h64v-384h-64v384z" />
    <glyph glyph-name="uniF119" unicode="&#xf119;" horiz-adv-x="511" 
d="M304 42.667h47.2383v-21.334h-223.238v21.334h48v42.666h-80c-17.5996 0 -32 14.4004 -32 32v192c0 17.6006 14.4004 32 32 32h288c17.6006 0 32 -14.3994 32 -32l-0.160156 -192c0 -17.5996 -14.2393 -32 -31.8398 -32h-80v-42.666zM384 117.333v192h-288v-192h288z
M352 261.333v-32h-176v32h176zM352 197.333v-32h-176v32h176zM160 261.333v-32h-32v32h32zM160 197.333v-32h-32v32h32z" />
    <glyph glyph-name="uniF125" unicode="&#xf125;" 
d="M256 -21.333c-117.82 0 -213.333 95.5127 -213.333 213.333s95.5127 213.333 213.333 213.333s213.333 -95.5127 213.333 -213.333s-95.5127 -213.333 -213.333 -213.333zM320 170.667h42.667v42.666h-42.667v-42.666zM234.667 170.667h42.6875v42.666h-42.6875v-42.666z
M149.333 170.667h42.667v42.666h-42.667v-42.666z" />
    <glyph glyph-name="uniF11A" unicode="&#xf11a;" 
d="M256 -21.333c-117.82 0 -213.333 95.5127 -213.333 213.333s95.5127 213.333 213.333 213.333s213.333 -95.5127 213.333 -213.333s-95.5127 -213.333 -213.333 -213.333zM234.667 256c-23.5527 0 -42.667 -19.1143 -42.667 -42.667v-42.666
c0 -23.5527 19.1143 -42.667 42.667 -42.667h42.666c23.5527 0 42.667 19.1143 42.667 42.667v42.666c0 23.5527 -19.1143 42.667 -42.667 42.667h-42.666z" />
    <glyph glyph-name="uniF17A" unicode="&#xf17a;" 
d="M160 224v64c0 53.0195 42.9805 96 96 96s96 -42.9805 96 -96h-32c0 35.3467 -28.6533 64 -64 64s-64 -28.6533 -64 -64v-64h163.777h28.2227c17.6729 0 32 -14.3271 32 -32v-160c0 -17.6729 -14.3271 -32 -32 -32h-256c-17.6729 0 -32 14.3271 -32 32v160
c0 17.6729 14.3271 32 32 32v0h32zM256 96c17.6729 0 32 14.3271 32 32s-14.3271 32 -32 32s-32 -14.3271 -32 -32s14.3271 -32 32 -32z" />
    <glyph glyph-name="uniF15D" unicode="&#xf15d;" 
d="M128 298.542v-213.084c0 -11.8633 9.59863 -21.458 21.458 -21.458h213.084c11.8633 0 21.458 9.59863 21.458 21.458v213.084c0 11.8633 -9.59863 21.458 -21.458 21.458h-213.084c-11.8633 0 -21.458 -9.59863 -21.458 -21.458zM106.667 298.542
c0 23.6328 19.1367 42.791 42.791 42.791h213.084c23.6328 0 42.791 -19.1367 42.791 -42.791v-213.084c0 -23.6328 -19.1367 -42.791 -42.791 -42.791h-213.084c-23.6328 0 -42.791 19.1367 -42.791 42.791v213.084zM149.333 298.667h213.334v-64h-213.334v64z" />
    <glyph glyph-name="uniF107" unicode="&#xf107;" 
d="M192 320v-256l128 128l-128 128z" />
    <glyph glyph-name="uniF10F" unicode="&#xf10f;" 
d="M210.016 230.022l171.892 171.893c18.7344 18.7334 49.3701 18.8145 68.1504 0.0341797l18.5117 -18.5117c18.9473 -18.9473 18.8398 -49.2754 -0.0341797 -68.1504l-171.893 -171.892l-69.208 -23.0693c-29.499 -9.83301 -50.2617 11.168 -40.4883 40.4883z
M404.535 379.287l-166.551 -166.55s-25.0498 -63.5137 -20.6689 -62.0537l62.042 20.6807l166.55 166.551c6.41406 6.41309 6.44922 16.4805 0.0351562 22.8955l-18.5117 18.5117c-6.25684 6.25684 -16.6318 6.22949 -22.8955 -0.0351562zM192 381.38v-32h-96
c-18.1025 0 -32 -12.8105 -32 -27.0771v-297.846c0 -14.3389 13.8262 -27.0771 32 -27.0771h256c18.1045 0 32 12.7959 32 27.0771v88.6152h32v-88.6152c0 -32.6426 -28.8623 -59.0771 -64 -59.0771h-256c-35.2236 0 -64 26.3936 -64 59.0771v297.846
c0 32.5908 28.8262 59.0771 64 59.0771h96z" />
    <glyph glyph-name="uniF129" unicode="&#xf129;" 
d="M368.625 72.4053c-5.61035 0 -11.1572 2.19727 -15.3389 6.50684c-7.70117 7.95703 -8.04199 20.4795 -0.767578 28.8213c25.877 29.7383 36.5439 68.9922 29.2695 107.733c-7.89355 42.1328 -36.1387 77.333 -75.5635 94.1865
c-23.3594 10.0049 -48.8955 12.7998 -73.9404 8.08496c-11.5635 -2.13281 -22.7422 5.46191 -24.918 17.0459c-2.17578 11.5625 5.46191 22.7197 17.0459 24.8955c33.3223 6.31543 67.4346 2.53906 98.6025 -10.7939c52.5439 -22.4854 90.1758 -69.4189 100.715 -125.547
c3.51953 -18.8584 3.88184 -37.7812 1.2373 -56.1709l9.30078 7.61621c9.15234 7.40234 22.5918 6.03711 30.0166 -3.07227c7.44531 -9.10938 6.0791 -22.5488 -3.05078 -30.0156l-79.1475 -64.4912c-3.94629 -3.2207 -8.70312 -4.7998 -13.4609 -4.7998zM255.729 21.3018
c-22.9121 0 -45.6328 4.62891 -66.9873 13.7598c-52.5869 22.5068 -90.2402 69.4395 -100.735 125.567c-3.54199 18.8164 -3.9043 37.7607 -1.2373 56.1289l-9.30176 -7.55273c-9.08789 -7.4668 -22.5498 -6.10156 -30.0156 3.05078
c-7.4248 9.15234 -6.05859 22.5918 3.07129 30.0166l79.083 64.4258c8.57617 6.99805 21.0986 6.25098 28.7998 -1.70605c7.70117 -7.95801 8.02148 -20.4805 0.768555 -28.8428c-25.8564 -29.7383 -36.5234 -68.9707 -29.2275 -107.669
c7.87207 -42.0908 36.1182 -77.3125 75.5635 -94.208c23.3809 -9.96289 48.9814 -12.7148 73.9414 -8.08594c11.6475 2.21875 22.7197 -5.43945 24.8955 -17.0234s-5.46094 -22.7422 -17.0234 -24.8965c-10.4961 -1.98438 -21.0566 -2.96484 -31.5947 -2.96484z" />
    <glyph glyph-name="uniF136" unicode="&#xf136;" horiz-adv-x="511" 
d="M384 42.667h-106.666v42.666h-106.667v-42.666h-106.667v106.666h42.667v106.667h-42.667v106.667h106.667v-42.667h106.667v42.667h106.666v-106.667h-42.666v-106.667h42.666v-106.666zM320 256h-42.666v42.667h-106.667v-42.667h-42.667v-106.667h42.667v-42.666
h106.667v42.666h42.666v106.667v0z" />
    <glyph glyph-name="uniF101" unicode="&#xf101;" 
d="M0 -64v320c0 106.026 85.9736 192 192 192h128c106.026 0 192 -85.9736 192 -192v-320h-512v0zM376.661 252.331l-120.661 -120.662l-120.661 120.662l-60.373 -60.3311l120.703 -120.661v0l60.3311 -60.373l60.3311 60.373v0l120.703 120.661l-60.373 60.3311v0z" />
    <glyph glyph-name="uniF167" unicode="&#xf167;" 
d="M391.111 320v0c19.7334 0 35.5557 -15.8223 35.5557 -35.5557v-53.333c0 -19.7334 -15.8223 -35.5557 -35.5557 -35.5557h-35.5557v-53.333c0 -39.2891 -31.8223 -71.1113 -71.1113 -71.1113h-106.667c-39.2881 0 -71.1104 31.8223 -71.1104 71.1113v177.777h284.444z
M391.111 231.111v0v53.333h-35.5557v-53.333h35.5557zM71.1113 0v0v35.5557h320v-35.5557h-320z" />
    <glyph glyph-name="uniF162" unicode="&#xf162;" 
d="M256.651 259.062l-74.1357 -74.1367l-22.5098 22.5098l112.565 112.565l22.5098 -22.5098l90.0547 -90.0557l-22.5098 -22.5098l-74.1357 74.1367v-163.062h-31.8389v163.062zM272 32c97.2021 0 176 78.7979 176 176s-78.7979 176 -176 176s-176 -78.7979 -176 -176
s78.7979 -176 176 -176zM272 0c-114.875 0 -208 93.125 -208 208s93.125 208 208 208s208 -93.125 208 -208s-93.125 -208 -208 -208z" />
    <glyph glyph-name="uniF108" unicode="&#xf108;" 
d="M416 249.6l-160 -153.6l-40 38.4004v0l-120 115.199l40 38.4004l120 -115.2l120 115.2z" />
    <glyph glyph-name="uniF16A" unicode="&#xf16a;" 
d="M177.377 121.455l-1.85547 1.63672l-68.6924 73.1494c-8.00195 8.52148 -5.13281 13.0938 6.23145 10.2568l58.1445 -14.5117l126.89 106.681v42.6885c0 11.7695 6.72266 14.4756 15.0273 6.03223l105.523 -107.288c8.2998 -8.4375 5.61133 -14.7656 -6.38867 -14.1123
l-38.8477 2.11426l-108.514 -134.536l9.18359 -51.3398c2.06445 -11.5381 -2.80469 -14.1777 -11.1113 -5.65234l-65.0957 66.8057l-4.46387 3.9375l-92.9902 -92.9893l-15.085 15.085z" />
    <glyph glyph-name="uniF13C" unicode="&#xf13c;" 
d="M192 384v-32h-96c-18.1025 0 -32 -12.8096 -32 -27.0771v-297.846c0 -14.3389 13.8262 -27.0771 32 -27.0771h256c18.1045 0 32 12.7959 32 27.1855l0.245117 72.0098l32 -0.109375l-0.245117 -72.0088c0 -32.6426 -28.8623 -59.0771 -64 -59.0771h-256
c-35.2236 0 -64 26.3936 -64 59.0771v297.846c0 32.5908 28.8262 59.0771 64 59.0771h96zM270.106 211.597c-18.6768 20.0098 -30.1064 46.8721 -30.1064 76.4033c0 61.8555 50.1445 112 112 112s112 -50.1445 112 -112s-50.1445 -112 -112 -112
c-20.7275 0 -40.1396 5.63086 -56.79 15.4453l-80.583 -80.582l-22.627 22.627zM352 208c44.1826 0 80 35.8174 80 80s-35.8174 80 -80 80s-80 -35.8174 -80 -80s35.8174 -80 80 -80z" />
    <glyph glyph-name="uniF12A" unicode="&#xf12a;" 
d="M352 192l-38.4004 -40v0l-115.199 -120l-38.4004 40l115.2 120l-115.2 120l38.4004 40l115.199 -120v0z" />
    <glyph glyph-name="uniF16D" unicode="&#xf16d;" 
d="M384 362.667c25.79 0 42.667 -17.0674 42.667 -42.667v-64h-42.667v64h-256v-256h256v64h42.667v-64c0 -25.5996 -16.877 -42.667 -42.667 -42.667h-256c-25.5996 0 -42.667 17.0674 -42.667 42.667v256c0 25.5996 17.0674 42.667 42.667 42.667h256zM250.816 171.74
l54.0938 -54.0947l-30.165 -30.165l-105.593 105.593l30.165 30.166l75.4277 75.4277l30.165 -30.166l-54.0938 -54.0938h175.851v-42.667h-175.851z" />
    <glyph glyph-name="uniF104" unicode="&#xf104;" 
d="M154.208 158.016l149.024 -149.023l-45.248 -45.248l-226.272 226.271l45.248 45.248l181.024 181.024l45.248 -45.248l-149.024 -149.024h327.776v-64h-327.776z" />
    <glyph glyph-name="uniF147" unicode="&#xf147;" 
d="M240.33 127.25l-90.5605 -90.5596v0v0l-0.0634766 -0.0644531c-0.224609 -0.223633 -0.544922 -0.288086 -0.768555 -0.511719c-6.27148 -5.53613 -15.584 -5.63184 -21.7598 0.511719l-90.5918 90.624c-6.24023 6.20801 -6.0166 16.5127 0.03125 22.5918
c6.27246 6.24023 16.1924 6.43262 22.5928 0.0322266l62.1113 -62.1113v243.584c0 8.99121 7.42383 16.2871 16 16.2871c8.83203 0 16 -7.10352 16 -16.2871v-245.856l64.3848 64.3838c6.20801 6.20801 16.5117 6.0166 22.5596 -0.0322266
c6.27246 -6.27148 6.46387 -16.1914 0.0644531 -22.5918z" />
    <glyph glyph-name="uniF163" unicode="&#xf163;" 
d="M202 352l0.46875 1.49902c5.26367 16.8457 23.7676 30.501 41.6895 30.501h55.6836c17.7607 0 36.3994 -13.5732 41.6895 -30.501l0.46875 -1.49902h74.1416c17.5947 0 31.8584 -14.584 31.8584 -32.0791v-319.842c0 -17.7168 -14.2344 -32.0791 -31.8584 -32.0791
h-288.283c-17.5947 0 -31.8584 14.584 -31.8584 32.0791v319.842c0 17.7168 14.2344 32.0791 31.8584 32.0791h74.1416zM416 319.921c0 -0.0185547 -288.026 0.0791016 -288.026 0.0791016c0.0195312 -0.00683594 0.0263672 -319.921 0.0263672 -319.921
c0 0.0185547 288.026 -0.0791016 288.026 -0.0791016c-0.0195312 0.00683594 -0.0263672 319.921 -0.0263672 319.921zM192 256h160v-32h-160v32zM192 192h160v-32h-160v32zM192 128h160v-32h-160v32z" />
    <glyph glyph-name="uniF158" unicode="&#xf158;" 
d="M239.834 80.3076c0.0283203 -0.0292969 115.021 114.692 115.021 114.692h-67.2812v156.834c0 0.239258 -91.082 0.166016 -91.082 0.166016c-0.130859 0 -0.167969 -157 -0.167969 -157h-71.1826zM319.574 227h80.4385c17.7275 0 21.7695 -10.3291 9.30566 -22.793
l-146.527 -146.527c-12.5879 -12.5879 -33.1211 -12.4629 -45.584 0l-146.528 146.527c-12.5879 12.5879 -8.19922 22.793 9.30566 22.793h84.3398v124.834c0 17.7646 14.3271 32.166 32.168 32.166h90.9141c17.7656 0 32.168 -14.1055 32.168 -32.166v-124.834zM64 0v32
h352v-32h-352z" />
    <glyph glyph-name="uniF10A" unicode="&#xf10a;" 
d="M267.646 225.608l158.393 158.392l45.2549 -45.2549l-158.393 -158.392l158.393 -158.393l-45.2549 -45.2549l-158.393 158.393l-158.392 -158.393l-45.2549 45.2549l158.392 158.393l-158.392 158.392l45.2549 45.2549z" />
    <glyph glyph-name="uniF105" unicode="&#xf105;" 
d="M416 0h-320c-35.3604 0 -64 28.6396 -64 64v256c0 35.3604 28.6396 64 64 64h32v-32h-32c-17.6641 0 -32 -14.3359 -32 -32v-32h384v32c0 17.6641 -14.3359 32 -32 32h-32v32h32c35.3604 0 64 -28.6396 64 -64v-32v-32v-192c0 -35.3604 -28.6396 -64 -64 -64v0zM448 256
h-384v-192c0 -17.6641 14.3359 -32 32 -32h320c17.6641 0 32 14.3359 32 32v192v0zM320 128h64v-32h-64v32v0zM320 192h64v-32h-64v32v0zM224 128h64v-32h-64v32v0zM224 192h64v-32h-64v32v0zM128 128h64v-32h-64v32v0zM128 192h64v-32h-64v32v0zM320 352v32v32h32v-32v-32
v-32h-32v32v0zM224 384h64v-32h-64v32v0zM160 352v32v32h32v-32v-32v-32h-32v32v0z" />
    <glyph glyph-name="uniF11E" unicode="&#xf11e;" 
d="M501.832 360.464c-1.41992 0.21582 -2.66797 0.635742 -3.74805 1.25977s-1.93164 1.5166 -2.55566 2.67285c-0.624023 1.15137 -0.94043 2.66309 -0.94043 4.53906v22h-6.1875v6.85254h6.1875v11.1758h10.2324v-11.1758h7.49121v-6.85254h-7.49121v-18.4639
c0 -1.73145 0.288086 -2.88379 0.863281 -3.46387c0.572266 -0.576172 1.73242 -0.864258 3.45605 -0.864258c0.576172 0 1.12793 0.0244141 1.66016 0.0722656c0.524414 0.0478516 1.03223 0.120117 1.51172 0.21582v-7.93164
c-0.863281 -0.143555 -1.82715 -0.240234 -2.87988 -0.291992c-1.05957 -0.0439453 -2.0918 -0.0683594 -3.09961 -0.0683594c-1.58398 0 -3.08398 0.108398 -4.5 0.324219zM474.136 365.692c-1.2959 -2.16406 -2.97559 -3.72461 -5.04004 -4.68848
c-2.06738 -0.963867 -4.17969 -1.44434 -6.33984 -1.44434c-2.73633 0 -4.9834 0.360352 -6.73633 1.08398c-1.74707 0.720703 -3.13184 1.74023 -4.13965 3.06445s-1.71582 2.93555 -2.12793 4.83203c-0.404297 1.90039 -0.608398 4.00391 -0.608398 6.31152v22.9365
h10.2285v-21.0605c0 -3.0752 0.479492 -5.37598 1.43945 -6.8877c0.960938 -1.51562 2.66406 -2.27148 5.1123 -2.27148c2.78418 0 4.80371 0.828125 6.05176 2.4873c1.24805 1.65625 1.87207 4.38867 1.87207 8.18457v19.5479h10.2324v-37.2881h-9.72852v5.19238h-0.21582z
M430.708 385.168c-0.0957031 1.10449 -0.364258 2.06445 -0.795898 2.88379c-0.431641 0.816406 -1.06836 1.46777 -1.9082 1.94824s-1.97949 0.719727 -3.42383 0.719727c-1.43652 0 -2.60449 -0.275391 -3.49219 -0.828125
c-0.883789 -0.551758 -1.58398 -1.27539 -2.08789 -2.16797c-0.503906 -0.887695 -0.839844 -1.89551 -1.00781 -3.02734c-0.167969 -1.12793 -0.248047 -2.27246 -0.248047 -3.42383v-20.7725h-10.2324v20.916c0 1.10352 -0.0234375 2.2002 -0.0712891 3.28027
c-0.0439453 1.08398 -0.251953 2.08008 -0.612305 2.99609c-0.360352 0.911133 -0.956055 1.64746 -1.7998 2.19922c-0.839844 0.552734 -2.07617 0.828125 -3.70801 0.828125c-0.484375 0 -1.11621 -0.107422 -1.91211 -0.323242
c-0.788086 -0.216797 -1.56055 -0.624023 -2.2998 -1.22852c-0.748047 -0.599609 -1.38086 -1.46387 -1.91211 -2.5957c-0.52832 -1.12793 -0.788086 -2.6084 -0.788086 -4.43652v-21.6357h-10.2324v37.2881h9.65234v-5.04785
c1.48828 1.91992 3.1123 3.41211 5.00391 4.47168c1.89551 1.05566 4.06836 1.58398 6.51953 1.58398c2.35645 0 4.5 -0.456055 6.44824 -1.36816c1.94043 -0.912109 3.41992 -2.52344 4.42773 -4.83203c1.10449 1.63184 2.60449 3.07617 4.5 4.32422
c1.90039 1.25195 4.14062 1.87598 6.73633 1.87598c1.96777 0 3.79199 -0.240234 5.47168 -0.719727c1.68457 -0.480469 3.12402 -1.25195 4.32031 -2.30859c1.2041 -1.05566 2.14453 -2.43945 2.81641 -4.14746s1.00781 -3.75977 1.00781 -6.16406v-24.9561h-10.2324
v21.1318c0 1.24805 -0.0478516 2.42773 -0.139648 3.53613zM365.452 385.168c-0.0957031 1.10449 -0.360352 2.06445 -0.795898 2.88379c-0.432617 0.816406 -1.06445 1.46777 -1.9043 1.94824s-1.98438 0.719727 -3.42383 0.719727
c-1.44434 0 -2.6084 -0.275391 -3.49609 -0.828125c-0.883789 -0.551758 -1.58008 -1.27539 -2.08398 -2.16797c-0.503906 -0.887695 -0.839844 -1.89551 -1.01172 -3.02734c-0.164062 -1.12793 -0.251953 -2.27246 -0.251953 -3.42383v-20.7725h-10.2246v20.916
c0 1.10352 -0.0273438 2.2002 -0.0761719 3.28027c-0.0478516 1.08398 -0.248047 2.08008 -0.607422 2.99609c-0.360352 0.911133 -0.963867 1.64746 -1.80371 2.19922c-0.84082 0.552734 -2.07227 0.828125 -3.70801 0.828125
c-0.480469 0 -1.11621 -0.107422 -1.9082 -0.323242c-0.795898 -0.216797 -1.56055 -0.624023 -2.30469 -1.22852c-0.743164 -0.599609 -1.38379 -1.46387 -1.90723 -2.5957c-0.52832 -1.12793 -0.795898 -2.6084 -0.795898 -4.43652v-21.6357h-10.2246v37.2881h9.65234
v-5.04785c1.48828 1.91992 3.10352 3.41211 5.00391 4.47168c1.89551 1.05566 4.06836 1.58398 6.51562 1.58398c2.35645 0 4.50391 -0.456055 6.44824 -1.36816s3.41992 -2.52344 4.42773 -4.83203c1.1084 1.63184 2.6084 3.07617 4.50391 4.32422
c1.89258 1.25195 4.14062 1.87598 6.73242 1.87598c1.96777 0 3.79199 -0.240234 5.47559 -0.719727c1.68066 -0.480469 3.12012 -1.25195 4.32031 -2.30859c1.2002 -1.05566 2.13574 -2.43945 2.80762 -4.14746c0.672852 -1.70801 1.00879 -3.75977 1.00879 -6.16406
v-24.9561h-10.2246v21.1318c0 1.24805 -0.0517578 2.42773 -0.143555 3.53613zM300.916 364.104c-1.63184 -1.67969 -3.55176 -2.85938 -5.75977 -3.53125c-2.21191 -0.671875 -4.46777 -1.0127 -6.77246 -1.0127c-1.77539 0 -3.43555 0.216797 -4.97168 0.648438
c-1.53613 0.435547 -2.87988 1.1084 -4.03223 2.02441c-1.15234 0.911133 -2.05176 2.06738 -2.7002 3.45996c-0.647461 1.39551 -0.97168 3.05176 -0.97168 4.97559c0 2.11621 0.37207 3.86035 1.11621 5.22852c0.744141 1.37109 1.7041 2.46387 2.87988 3.2832
c1.17578 0.816406 2.52344 1.42871 4.03613 1.83984c1.51172 0.408203 3.03613 0.732422 4.57129 0.972656c1.53613 0.240234 3.04883 0.431641 4.53613 0.576172c1.48828 0.143555 2.8125 0.363281 3.95996 0.647461c1.15625 0.291992 2.06836 0.711914 2.74023 1.26465
c0.671875 0.551758 0.984375 1.35938 0.936523 2.41602c0 1.10742 -0.180664 1.9834 -0.540039 2.63184c-0.360352 0.651367 -0.84082 1.15527 -1.44043 1.51562s-1.2998 0.599609 -2.08789 0.719727c-0.795898 0.120117 -1.64844 0.180664 -2.55957 0.180664
c-2.0166 0 -3.60059 -0.432617 -4.75293 -1.2959c-1.15137 -0.864258 -1.82324 -2.30859 -2.01562 -4.32812h-10.2275c0.143555 2.40332 0.743164 4.39941 1.7998 5.9873c1.05566 1.58398 2.39941 2.86035 4.03223 3.82031
c1.63574 0.959961 3.47168 1.64844 5.51172 2.05566c2.04004 0.408203 4.0918 0.612305 6.15625 0.612305c1.87598 0 3.77148 -0.131836 5.69141 -0.395508c1.91992 -0.264648 3.67188 -0.780273 5.25586 -1.54883c1.58398 -0.771484 2.88086 -1.83984 3.88867 -3.21191
s1.51562 -3.18359 1.51562 -5.44336v-19.4043c0 -1.68359 0.0957031 -3.29199 0.288086 -4.82812c0.188477 -1.54004 0.524414 -2.69629 1.00781 -3.46387h-10.3721c-0.191406 0.576172 -0.347656 1.16406 -0.467773 1.76367
c-0.120117 0.604492 -0.204102 1.2168 -0.251953 1.83984zM298.864 377.844c-0.648438 -0.21582 -1.34473 -0.395508 -2.08789 -0.540039c-0.748047 -0.143555 -1.52832 -0.263672 -2.34473 -0.359375c-0.81543 -0.0966797 -1.63184 -0.216797 -2.44727 -0.360352
c-0.768555 -0.143555 -1.52441 -0.335938 -2.26855 -0.576172c-0.744141 -0.244141 -1.3916 -0.567383 -1.94336 -0.975586c-0.556641 -0.408203 -0.996094 -0.923828 -1.33203 -1.54785c-0.336914 -0.62793 -0.504883 -1.4248 -0.504883 -2.38477
c0 -0.911133 0.167969 -1.67969 0.504883 -2.30762c0.335938 -0.624023 0.791992 -1.11621 1.36719 -1.47559c0.576172 -0.364258 1.24805 -0.616211 2.0166 -0.760742c0.767578 -0.143555 1.55957 -0.21582 2.37598 -0.21582c2.01562 0 3.57617 0.335938 4.67969 1.01172
c1.10449 0.672852 1.92383 1.47656 2.45215 2.41602c0.52832 0.936523 0.851562 1.88867 0.97168 2.84863c0.120117 0.963867 0.180664 1.73145 0.180664 2.30762v3.82031c-0.432617 -0.383789 -0.972656 -0.68457 -1.62012 -0.900391zM245.096 360.5h-8.71582
l-12.6035 36.1357l-0.144531 -36.1357h-10.5879v51.4961h15.916l12.0322 -35.4121l11.5234 35.4121h15.916v-51.4961h-10.5879v36.4961zM132.324 380.66c-1.25195 0.515625 -2.36816 1.07227 -3.32422 1.62402c-0.564453 0.324219 -0.94043 0.567383 -1.1123 0.691406
c-9.75195 6.84082 -11.1357 17.2441 -11.1357 17.2441s1.68848 -13.5439 -6.76758 -22.0078c6.76758 -16.9316 8.9834 -38.9355 5.07129 -38.9355h-18.3193s4.52344 24.624 -3.44824 25.3799c-0.620117 0.0839844 -1.26367 -0.180664 -1.63184 -0.740234
c-0.264648 -0.396484 -1.10059 -1.14844 -2.73633 -1.96387c-2.92383 -1.46387 -7.1084 -2.36035 -12.7803 -2.36035c-0.895508 0 -3.13965 -0.151367 -12.9395 1.2041c-10.9922 2.98438 -19.208 8.95215 -19.208 8.95215s-1.7002 -6.34375 0.332031 -13.2363
c2.53613 -8.61133 4.74414 -17.2354 1.35938 -17.2354h-16.916s1.57227 10.0479 0.600586 13.9639c0.120117 0.912109 -2.15234 3.43945 -2.71191 4.08008c-4.5127 5.16016 -7.31641 10.3955 -8.75195 15.5039c-0.720703 2.55957 -0.736328 4.8916 -2.64062 8.83984
c-4.01953 8.76758 -0.03125 23.6357 -0.03125 23.6357s-1.83594 0 -3.38867 -3.3877c-1.54785 -3.38379 -2.67578 -17.7803 -2.67578 -17.7803s1.82812 -0.868164 0.551758 -5.60352c-0.939453 -3.48828 -3.63184 -4.79199 -3.63184 -4.79199
s1.77637 27.8193 4.06445 31.5635c5.08008 8.2998 20.3037 23.7002 38.916 23.7002c5.08789 0 6.83984 6.48438 18.6836 9.87207c11.8438 3.38379 20.5762 -2.66406 25.3076 -1.4082c9.12891 2.41602 6.45215 9.94043 18.416 9.04785
c11.96 -0.891602 13.8564 -12.3193 13.8564 -12.3193s7.40039 -5.0127 13.4121 -17.0439c5.15234 -10.3047 7.08008 -22.6729 7.70801 -27.9961c-9.76855 -0.636719 -16.9678 10.8477 -16.9678 10.8477s4.02344 -13.832 17.1035 -13.4844
c0.12793 -0.015625 7.42773 0.0439453 14.748 4.9043c4.3877 2.91602 3.36035 7.23633 -1.3916 13.0645c14.9912 -10.2842 6.5 -19.6406 -3.68848 -23.7803c-1.25586 -0.356445 -2.43945 -0.755859 -2.81543 -0.883789
c-7.50879 -2.50391 -14.6963 -1.82422 -21.1162 0.839844zM14.6436 371.908c1.35254 -4.80469 3.79688 -9.68848 7.53223 -14.4805c1.82422 -5.33984 -0.279297 -18.1514 -3.56348 -18.1514h-18.6123c0 1.7832 1.69629 8.46387 10.1523 20.3154
c0 4.95996 1.63965 14.2246 3.31152 19.04c0.0605469 -1.87207 0.408203 -3.96777 1.17969 -6.72363zM93.7275 361.16c0.428711 -1.56836 0.900391 -3.4082 1.02441 -4.95215c0.683594 -8.46777 -6.13184 -14.6045 -8.45996 -13.5439
c-5.83984 2.66016 -13.5361 8.46387 -13.5361 8.46387s2.9082 2.74023 5.22461 5.1084c5.2793 0.179688 9.38379 1.15137 12.4551 2.6875c1.5 0.751953 2.57617 1.53613 3.29199 2.23633zM167.508 357.9c-6.43164 -4.64062 -0.599609 -7.37598 -3.38379 -10.1602
c-28.3037 12.3115 -31.6602 23.7041 -32.3916 29.5117c4.80762 -1.82812 11.0312 -2.60352 16.2432 -2.15234c0.932617 -5.12402 5.48047 -15.8516 19.5322 -17.1992z" />
    <glyph glyph-name="uniF106" unicode="&#xf106;" 
d="M384 224l-128 -128l-128 128h256z" />
    <glyph glyph-name="uniF150" unicode="&#xf150;" 
d="M457.154 365.159c-0.00683594 0.420898 -0.198242 0.705078 -0.203125 1.0332c-0.670898 8.65527 -7.52441 15.6475 -16.5469 15.8076l-132.699 1.99707c-9.11621 0.163086 -16.3799 -7.43457 -16.2676 -16.3154c0.163086 -9.16211 7.39941 -16.6758 16.7725 -16.8184
l90.9658 -1.38477l-106.427 -106.427c-6.48438 -6.48438 -6.22656 -17.2646 0.149414 -23.6406c6.56543 -6.56543 17.0176 -6.77148 23.6406 -0.149414l108.064 108.065l1.43555 -94.2939c0.138672 -9.0918 7.9375 -16.6133 16.7949 -16.748
c9.18555 -0.139648 16.4824 6.87109 16.3398 16.2441zM66.0215 9.23145c0.00683594 -0.421875 0.198242 -0.706055 0.203125 -1.03418c0.670898 -8.6543 7.52441 -15.6465 16.5459 -15.8076l132.7 -1.99707c9.11523 -0.162109 16.3799 7.43457 16.2676 16.3154
c-0.163086 9.16309 -7.39941 16.6758 -16.7725 16.8184l-90.9658 1.38574l106.427 106.426c6.48438 6.48438 6.22656 17.2656 -0.149414 23.6406c-6.56641 6.56641 -17.0176 6.77246 -23.6406 0.149414l-108.065 -108.065l-1.43555 94.2939
c-0.137695 9.0918 -7.93652 16.6143 -16.7939 16.749c-9.18652 0.139648 -16.4824 -6.87109 -16.3398 -16.2441z" />
    <glyph glyph-name="uniF13B" unicode="&#xf13b;" 
d="M342.652 102.245c34.7275 -8.84082 51.2393 -23.7812 56.1611 -32.7646c2.16797 -3.95605 3.8291 -7.8916 5.08984 -11.7139c5.91895 -17.9229 -7.27734 -36.4316 -25.9941 -36.4316l-120.867 -0.00195312h-1.04102h-1.04102l-120.867 0.00195312
c-18.7178 0 -31.915 18.5088 -25.9961 36.4316c1.26074 3.82227 2.92383 7.75781 5.0918 11.7139c4.92188 8.9834 21.4336 23.9238 56.1611 32.7646c15.1885 3.86719 46.5684 14.5576 46.3701 38.3613c-0.129883 25.9307 -7.04785 30.8115 -15.1992 42.4795
c-7.4707 10.6904 -16.5508 40.9834 -17.7754 54.5488c-1.3584 15.0293 -4.12207 41.4326 8.68066 65.249c8.69141 16.168 30.1104 38.4492 64.5752 38.4492s55.8838 -22.2812 64.5752 -38.4492c12.8027 -23.8164 10.0371 -50.2197 8.68066 -65.249
c-1.22461 -13.5654 -10.3047 -43.8584 -17.7754 -54.5488c-8.15332 -11.668 -15.0723 -16.5488 -15.1992 -42.4795c-0.198242 -23.8037 31.1816 -34.4941 46.3701 -38.3613z" />
    <glyph glyph-name="uniF15C" unicode="&#xf15c;" 
d="M149.333 192h213.334v-64h-213.334v64zM128 192.056v-106.778c0 -11.7109 9.60156 -21.2773 21.458 -21.2773h213.084c11.8828 0 21.458 9.53809 21.458 21.2773v106.778c0 11.7119 -9.60156 21.2773 -21.458 21.2773h-213.084
c-11.8828 0 -21.458 -9.53711 -21.458 -21.2773zM106.667 192.056c0 23.5332 19.1367 42.6113 42.791 42.6113h213.084c23.6328 0 42.791 -19.1123 42.791 -42.6113v-106.778c0 -23.5332 -19.1367 -42.6104 -42.791 -42.6104h-213.084
c-23.6328 0 -42.791 19.1113 -42.791 42.6104v106.778z" />
    <glyph glyph-name="uniF13D" unicode="&#xf13d;" 
d="M256 -64c-141.376 0 -256 114.624 -256 256s114.624 256 256 256s256 -114.624 256 -256s-114.624 -256 -256 -256v0zM192 213.333h-42.667v-42.666h42.667v42.666v0zM277.333 213.333h-42.666v-42.666h42.666v42.666v0zM362.667 213.333h-42.667v-42.666h42.667v42.666
v0z" />
    <glyph glyph-name="uniF146" unicode="&#xf146;" 
d="M248.901 221.726l113.138 113.138l22.627 -22.6279l-113.137 -113.137l113.137 -113.138l-22.627 -22.627l-113.138 113.137l-113.137 -113.137l-22.6279 22.627l113.138 113.138l-113.138 113.137l22.6279 22.6279z" />
    <glyph glyph-name="uniF103" unicode="&#xf103;" 
d="M248 129.689c-9.32227 3.26367 -16 12.0957 -16 22.4854c0 13.1631 10.752 23.8291 24 23.8291s24 -10.666 24 -23.8291c0 -10.3896 -6.67773 -19.2217 -16 -22.4854v-25.3438c0 -4.30957 -3.71191 -7.78711 -8 -7.78711c-4.41602 0 -8 3.41406 -8 7.78711v25.3438z
M157.333 77.333h197.334v125.334h-197.334v-125.334zM205.333 248v-24h101.206l0.12793 24c0 27.9893 -22.6777 50.667 -50.667 50.667s-50.667 -22.6777 -50.667 -50.667zM256 320v0c39.7656 0 72 -32.2344 72 -72l-0.234375 -24h48.2344v-168h-240v168h48v24
c0 39.7656 32.2344 72 72 72z" />
    <glyph glyph-name="uniF12B" unicode="&#xf12b;" 
d="M106.667 341.333h64v-42.666h-21.334v-234.667h213.334v234.667h-21.334v42.666h64v-320h-298.666v320zM192 149.333v21.334h85.333v-21.334h-85.333v0zM192 213.333h128v-21.333h-128v21.333v0zM192 256h128v-21.333h-128v21.333v0zM192 341.333h21.333
c0 23.5732 19.0938 21.334 42.667 21.334s42.667 2.23926 42.667 -21.334h21.333v-42.666h-128v42.666z" />
    <glyph glyph-name="uniF14B" unicode="&#xf14b;" 
d="M0 448h64v-64h-64v64zM0 352h64v-64h-64v64zM0 256h64v-64h-64v64zM0 160h64v-64h-64v64zM0 64h64v-64h-64v64zM96 64h64v-64h-64v64zM192 448h64v-64h-64v64zM96 448h64v-64h-64v64zM288 448h64v-64h-64v64zM384 448h64v-64h-64v64zM384 352h64v-64h-64v64zM368 -64
c-79.5293 0 -144 64.4707 -144 144s64.4707 144 144 144s144 -64.4707 144 -144s-64.4707 -144 -144 -144zM288 96v-32h160v32h-160z" />
    <glyph glyph-name="uniF15F" unicode="&#xf15f;" 
d="M404.866 342.439l-6.19141 70.7715l31.8779 2.78906l11.2686 -128.802l-128.632 -11.2539l-2.78906 31.8789l77.7646 6.80273c-31.7588 27.9482 -72.667 43.7734 -116.165 43.7734c-97.2021 0 -176 -78.7979 -176 -176s78.7979 -176 176 -176s176 78.7979 176 176h32
c0 -114.875 -93.125 -208 -208 -208s-208 93.125 -208 208s93.125 208 208 208c50.5186 0 96.8311 -18.0098 132.866 -47.96z" />
    <glyph glyph-name="uniF16F" unicode="&#xf16f;" 
d="M190.392 85.9609l248.902 248.902l45.2549 -45.2549l-260.216 -260.216l-33.9414 -33.9414l-158.392 158.393l45.2549 45.2549z" />
    <glyph glyph-name="uniF116" unicode="&#xf116;" 
d="M85.333 64h298.667v170.667h-298.667v-170.667zM392.704 288.234v0c6.97559 0 12.6289 -5.69531 12.6289 -12.7148v-220.139c0 -7.01855 -5.65332 -12.7139 -12.6289 -12.7139h-316.054c-6.97559 0 -12.6504 5.69531 -12.6504 12.7139v273.238
c0 7.01855 5.6748 12.7139 12.6504 12.7139h95.4033c18.9648 0 26.7939 -53.0986 47.4453 -53.0986h173.205z" />
    <glyph glyph-name="uniF15B" unicode="&#xf15b;" 
d="M416 240c0 -64.4463 -38.4531 -121.58 -96 -146.686v-45.3145h-128v45.3145c-57.5469 25.1055 -96 82.2393 -96 146.686c0 88.3652 71.6348 160 160 160s160 -71.6348 160 -160zM208 -32v32h96v-32h-96z" />
    <glyph glyph-name="uniF12F" unicode="&#xf12f;" 
d="M502.624 22.624l-45.248 -45.248l-122.4 122.4c-31.3916 -22.3359 -69.5352 -35.7764 -110.976 -35.7764c-106.048 0 -192 85.9521 -192 192s85.9521 192 192 192s192 -85.9521 192 -192c0 -41.4404 -13.4404 -79.584 -35.7764 -110.976l122.4 -122.4v0zM224 384
c-70.6885 0 -128 -57.3115 -128 -128s57.3115 -128 128 -128s128 57.3115 128 128s-57.3115 128 -128 128v0z" />
    <glyph glyph-name="uniF113" unicode="&#xf113;" 
d="M448 85.333v-42.666c0 -23.5732 -19.0938 -42.667 -42.667 -42.667h-42.666c-23.5732 0 -42.667 19.0938 -42.667 42.667h-128c0 -23.5732 -19.0938 -42.667 -42.667 -42.667h-42.666c-23.5732 0 -42.667 19.0938 -42.667 42.667v42.666
c0 23.5732 19.0938 42.667 42.667 42.667v0v128v0c-23.5732 0 -42.667 19.0938 -42.667 42.667v42.666c0 23.5732 19.0938 42.667 42.667 42.667h42.666c23.5732 0 42.667 -19.0938 42.667 -42.667h128c0 23.5732 19.0938 42.667 42.667 42.667h42.666
c23.5732 0 42.667 -19.0938 42.667 -42.667v-42.666c0 -23.5732 -19.0938 -42.667 -42.667 -42.667v-128c23.5732 0 42.667 -19.0938 42.667 -42.667v0zM106.667 85.333v-42.666h42.666v42.666h-42.666v0zM149.333 341.333h-42.666v-42.666h42.666v42.666v0zM320 298.667
h-128c0 -23.5732 -19.0938 -42.667 -42.667 -42.667v0v-128v0c23.5732 0 42.667 -19.0938 42.667 -42.667v0h128v0c0 23.5732 19.0938 42.667 42.667 42.667v128c-23.5732 0 -42.667 19.0938 -42.667 42.667v0zM405.333 341.333h-42.666v-42.666h42.666v42.666v0z
M362.667 85.333v-42.666h42.666v42.666h-42.666v0z" />
    <glyph glyph-name="uniF121" unicode="&#xf121;" 
d="M256 -64c-141.376 0 -256 114.624 -256 256s114.624 256 256 256s256 -114.624 256 -256s-114.624 -256 -256 -256v0zM342.251 266.112l-120.683 -120.662l-60.3311 60.3311l-30.165 -30.165l90.4961 -90.5176l150.848 150.848l-30.165 30.166v0z" />
    <glyph glyph-name="uniF159" unicode="&#xf159;" 
d="M273.066 209.066h136.674c9.34766 0 16.9268 -7.5752 16.9268 -17.0664c0 -9.42578 -7.77051 -17.0664 -16.9268 -17.0664h-136.674v-136.674c0 -9.34766 -7.5752 -16.9268 -17.0664 -16.9268c-9.42578 0 -17.0664 7.77051 -17.0664 16.9268v136.674h-136.674
c-9.34766 0 -16.9268 7.5752 -16.9268 17.0664c0 9.42578 7.77051 17.0664 16.9268 17.0664h136.674v136.674c0 9.34766 7.5752 16.9268 17.0664 16.9268c9.42578 0 17.0664 -7.77051 17.0664 -16.9268v-136.674z" />
    <glyph glyph-name="uniF123" unicode="&#xf123;" 
d="M384 256v42.667h-256v-213.334h85.333v-14.2295l-21.333 -28.4365h-106.667v298.666h341.334v-128l-42.667 42.667v0zM298.005 149.333h-42.0049l74.667 85.334l37.4824 -42.8379h0.448242c0.149414 0 0.212891 -0.59668 0.319336 -0.874023l36.416 -41.6221h-41.5996
c-12.6719 -50.4961 -50.5605 -128 -150.4 -127.979c54.4434 2.21875 77.0352 74.1553 84.6719 127.979v0z" />
    <glyph glyph-name="uniF143" unicode="&#xf143;" 
d="M315.429 83.5557h59.4287v39.2676h-59.4287v-39.2676zM137.143 122.823v-39.2676h59.5283v39.2676h-59.5283zM137.143 142.379h59.5283v39.5215h-59.5283v-39.5215zM137.143 201.456h59.5283v38.915h-59.5283v-38.915zM315.429 201.456h59.4287v38.915h-59.4287v-38.915z
M315.429 142.379h59.4287v39.5215h-59.4287v-39.5215zM216.48 201.456h79.1387v38.915h-79.1387v-38.915zM216.48 83.5557h79.1387v39.2676h-79.1387v-39.2676zM216.48 142.379h79.1387v39.5215h-79.1387v-39.5215zM376.501 298.667v0
c10.0439 0 18.166 -7.00098 18.166 -15.6445v-203.378c0 -8.64355 -8.12207 -15.6445 -18.166 -15.6445h-241.002c-10.0244 0 -18.166 7.00098 -18.166 15.6445v43.1787v19.5557v39.5215v19.5557v81.5664c0 8.64355 8.1416 15.6445 18.166 15.6445h241.002z" />
    <glyph glyph-name="uniF12E" unicode="&#xf12e;" 
d="M382.678 75.7334l-30.166 30.165l75.4141 75.4346l-75.4141 75.4346l30.166 30.166l105.6 -105.601l-105.6 -105.6v0zM201.344 -0l88.7256 362.667h38.9971l-88.7041 -362.667h-39.0186v0zM148.011 75.7334l-75.4346 75.4346v0l-30.165 30.165l30.165 30.166v0
l75.4346 75.4346l30.165 -30.166l-75.4131 -75.4346l75.4131 -75.4346l-30.165 -30.165v0z" />
    <glyph glyph-name="uniF127" unicode="&#xf127;" 
d="M392.542 69.6367l45.1621 165.034h-298.666c-2.19727 0 -6.29395 -2.96484 -7.04004 -5.63184l-45.1201 -165.035h298.667c2.19727 0 6.29297 2.96582 6.99707 5.63281zM443.87 256.004v0c12.0107 0 19.1787 -9.55664 15.9141 -21.333l-46.6553 -170.667
c-1.38672 -5.07715 -4.67285 -9.57812 -8.7041 -13.248c-1.87793 -4.69336 -6.37891 -8.08496 -11.7119 -8.08496h-7.16797h-304.832h-4.09668c-6.9541 0 -12.6074 5.6748 -12.6074 12.7148v273.237c0 6.99707 5.65332 12.7148 12.6074 12.7148h95.4248
c18.9648 0 26.7939 -53.1201 47.4658 -53.1201h173.206c6.9541 0 12.6289 -5.6748 12.6289 -12.7148v-19.499h38.5283zM224.791 158.406h106.667c6.37891 0 11.584 5.16309 11.584 11.541c0 6.37891 -5.20508 11.584 -11.584 11.584h-106.667
c-6.37793 0 -11.541 -5.20508 -11.541 -11.584c0 -6.37793 5.16309 -11.541 11.541 -11.541zM208.708 110.532h106.667c6.37891 0 11.541 5.16309 11.541 11.541c0 6.37891 -5.16211 11.542 -11.541 11.542h-106.667c-6.37793 0 -11.584 -5.16309 -11.584 -11.542
c0 -6.37793 5.20605 -11.541 11.584 -11.541z" />
    <glyph glyph-name="uniF10B" unicode="&#xf10b;" 
d="M256 0c-106.048 0 -192 85.9521 -192 192s85.9521 192 192 192s192 -85.9521 192 -192s-85.9521 -192 -192 -192v0zM339.872 253.248l-22.624 22.624l-61.248 -61.248l-61.248 61.248l-22.624 -22.624l61.248 -61.248l-61.248 -61.248l22.624 -22.624l61.248 61.248
l61.248 -61.248l22.624 22.624l-61.248 61.248l61.248 61.248v0z" />
    <glyph glyph-name="uniF115" unicode="&#xf115;" 
d="M384.964 320c35.7441 0 43.9365 -20.2236 19.0088 -45.1523l-82.3682 -82.3672v-1.76074v-158.784c0 -12.9277 -6.75195 -20.6719 -16.7363 -20.6719c-3.61621 0 -7.64746 1.02441 -11.9355 3.2002l-69.0244 34.752c-15.8398 8 -28.8643 29.0244 -29.0879 46.5283
l-1.21582 94.9756v0.799805l-0.255859 0.256836l-83.0088 83.0078c-24.8955 24.8955 -16.5752 45.2158 18.752 45.2158h197.44h58.4316zM371.876 288l-72.8955 -72.8965l-9.37598 -9.37598v-13.2471v-1.76074v-138.752l-51.2959 25.8242
c-5.05664 2.5918 -11.4248 12.7041 -11.4883 18.3682l-1.21582 95.3594l-0.255859 13.5361l-9.37598 9.34473l-73.6006 73.5996h184.16h45.3438z" />
    <glyph glyph-name="uniF160" unicode="&#xf160;" 
d="M136.746 320.627c-25.4414 -30.5195 -40.7461 -69.7852 -40.7461 -112.627c0 -97.207 78.793 -176 176 -176c42.8418 0 82.1074 15.3047 112.627 40.7461zM159.373 343.254l247.881 -247.881c25.4414 30.5195 40.7461 69.7852 40.7461 112.627
c0 97.207 -78.793 176 -176 176c-42.8418 0 -82.1074 -15.3047 -112.627 -40.7461zM272 0c-114.88 0 -208 93.1201 -208 208s93.1201 208 208 208s208 -93.1201 208 -208s-93.1201 -208 -208 -208z" />
    <glyph glyph-name="uniF14D" unicode="&#xf14d;" 
d="M249.856 230.955c56.085 0 101.546 15.3809 101.546 34.3672c0 18.9873 -45.4609 34.3682 -101.546 34.3682c-56.0859 0 -101.547 -15.3809 -101.547 -34.3682c0 -18.9863 45.4609 -34.3672 101.547 -34.3672zM128.042 267.047
c1.71289 35.0244 55.7324 52.9531 121.814 52.9531c66.0811 0 120.101 -17.9287 121.813 -52.9531h0.0292969v-0.769531c0.00878906 -0.316406 0.0126953 -0.634766 0.0126953 -0.955078c0 -0.319336 -0.00390625 -0.637695 -0.0126953 -0.955078v-53.7178h0.0146484
c0 -0.344727 -0.00488281 -0.689453 -0.0146484 -1.03125v-51.3271h0.0146484c0 -0.344727 -0.00488281 -0.689453 -0.0146484 -1.03125v-51.6426h-20.3096v19.8271c-21.8574 -14.4805 -59.2217 -21.8301 -101.531 -21.8301c-42.3154 0 -79.6846 7.35156 -101.541 21.8359
v-19.833h-20.3086v51.998c-0.00488281 0.224609 -0.00683594 0.450195 -0.00683594 0.675781h0.00683594v51.6826c-0.00488281 0.224609 -0.00683594 0.450195 -0.00683594 0.675781h0.00683594v53.8926c-0.00585938 0.259766 -0.00878906 0.519531 -0.00878906 0.780273
c0 0.261719 0.00292969 0.521484 0.00878906 0.780273v0.944336h0.0332031zM148.317 232.48v-22.2207c0.618164 -18.8066 45.8398 -33.9785 101.541 -33.9785c55.4971 0 100.593 15.0615 101.531 33.7725v22.4238c-21.8564 -14.4824 -59.2227 -21.832 -101.533 -21.832
c-42.3145 0 -79.6826 7.35059 -101.539 21.835zM148.317 177.809v-19.9072c0.618164 -18.8066 45.8398 -33.9785 101.541 -33.9785c55.4971 0 100.593 15.0615 101.531 33.7725v20.1074c-21.8574 -14.4805 -59.2217 -21.8301 -101.531 -21.8301
c-42.3154 0 -79.6846 7.35156 -101.541 21.8359zM249.858 50.9395c-67.1572 0 -121.856 18.5176 -121.856 54.6777h20.3096c0 -18.9863 45.4609 -34.3682 101.547 -34.3682c56.085 0 101.547 15.3818 101.547 34.3682h20.3086
c0 -36.1602 -54.6982 -54.6777 -121.855 -54.6777z" />
    <glyph glyph-name="uniF117" unicode="&#xf117;" 
d="M392.563 69.626l45.1406 165.034h-298.645c-2.21875 0 -6.31543 -2.94434 -7.04004 -5.61035l-45.1416 -165.057h298.646c2.21875 0 6.31445 2.96582 7.04004 5.63281zM443.87 255.993v0c12.0322 0 19.1572 -9.53516 15.9355 -21.333l-46.6768 -170.667
c-1.38672 -5.07715 -4.67285 -9.55664 -8.72559 -13.2266c-1.83496 -4.71387 -6.35742 -8.10645 -11.7119 -8.10645h-7.16797h-304.811h-4.0752c-6.97559 0 -12.6289 5.69629 -12.6289 12.7148v273.259c0 7.01855 5.65332 12.6934 12.6289 12.6934h95.4238
c18.9658 0 26.7734 -53.0986 47.4453 -53.0986h173.185c6.97559 0 12.6504 -5.69629 12.6504 -12.7148v-19.5205h38.5283z" />
    <glyph glyph-name="uniF139" unicode="&#xf139;" 
d="M192.11 94.3389l234.261 234.261l42.5928 -42.5928l-244.908 -244.908l-31.9453 -31.9453l-149.074 149.075l42.5928 42.5928z" />
    <glyph glyph-name="uniF131" unicode="&#xf131;" 
d="M252.992 0c-162.283 0 -188.992 60.6289 -188.992 60.6289v57.75s20.9922 -69.248 191.296 -69.248c170.325 0 192.704 72.1279 192.704 72.1279v-57.7285s-32.7041 -63.5303 -195.008 -63.5303v0zM252.992 101.056c-162.283 0 -188.992 60.6299 -188.992 60.6299v57.749
s21.6748 -69.9092 192 -69.9092s192 72.7891 192 72.7891v-57.749s-32.7041 -63.5098 -195.008 -63.5098v0zM252.992 202.112c-162.283 0 -188.992 59.6689 -188.992 59.6689v56.8535s0.106445 -0.255859 0.298828 -0.704102
c3.2002 36.6719 87.7012 66.0693 191.701 66.0693c101.931 0 185.088 -28.2451 191.381 -63.8936c0.384766 0.790039 0.619141 1.36523 0.619141 1.36523v-56.832s-32.7041 -62.5273 -195.008 -62.5273v0zM256 343.573c-82.4746 0 -149.333 -22.6133 -149.333 -50.5176
c0 -27.9033 66.8584 -50.5381 149.333 -50.5381s149.333 22.6348 149.333 50.5381c0 27.9043 -66.8584 50.5176 -149.333 50.5176v0z" />
    <glyph glyph-name="uniF179" unicode="&#xf179;" 
d="M160 224v64c0 53.0195 42.9805 96 96 96s96 -42.9805 96 -96h-32c0 35.3467 -28.6533 64 -64 64s-64 -28.6533 -64 -64v-64h163.777h28.2227c17.6729 0 32 -14.3271 32 -32v-160c0 -17.6729 -14.3271 -32 -32 -32h-256c-17.6729 0 -32 14.3271 -32 32v160
c0 17.6729 14.3271 32 32 32v0h32zM256 96c17.6729 0 32 14.3271 32 32s-14.3271 32 -32 32s-32 -14.3271 -32 -32s14.3271 -32 32 -32zM320 288h32v-64h-32v64z" />
    <glyph glyph-name="uniF176" unicode="&#xf176;" 
d="M405.333 384v0c23.4668 0 42.667 -19.2002 42.667 -42.667v-298.666c0 -23.4668 -19.2002 -42.667 -42.667 -42.667h-298.88c-23.4668 0 -42.4531 19.2002 -42.4531 42.667l0.212891 298.666c0 23.4668 18.7734 42.667 42.2402 42.667h298.88zM405.333 128v0v213.333
h-298.88v-213.333h85.5469c0 -35.4131 28.5869 -64 64 -64s64 28.5869 64 64h85.333zM341.333 234.667v0l-85.333 -85.334l-85.333 85.334h42.666v64h85.334v-64h42.666z" />
    <glyph glyph-name="uniF148" unicode="&#xf148;" 
d="M240.33 256.75l-90.5605 90.5596v0v0l-0.0634766 0.0644531c-0.224609 0.223633 -0.544922 0.288086 -0.768555 0.511719c-6.27148 5.53613 -15.584 5.63184 -21.7598 -0.511719l-90.5918 -90.624c-6.24023 -6.20801 -6.0166 -16.5127 0.03125 -22.5918
c6.27246 -6.24023 16.1924 -6.43262 22.5928 -0.0322266l62.1113 62.1113v-243.584c0 -8.99121 7.42383 -16.2871 16 -16.2871c8.83203 0 16 7.10352 16 16.2871v245.856l64.3848 -64.3838c6.20801 -6.20801 16.5117 -6.0166 22.5596 0.0322266
c6.27246 6.27148 6.46387 16.1914 0.0644531 22.5918z" />
    <glyph glyph-name="uniF174" unicode="&#xf174;" horiz-adv-x="511" 
d="M309.333 106.667h106.667v-21.334h-101.334l-16 -21.333l-32 42.667h42.667zM368 149.333l16 21.334l32 -42.667h-42.667h-106.667v21.333h101.334zM394.666 221.849c-6.75781 3.45996 -13.8955 6.28418 -21.333 8.3916v26.165h-64v-26.1689
c-7.43555 -2.10742 -14.5732 -4.93164 -21.333 -8.39355v34.5625h-85.2266v-42.4531h72.0254c-8.73535 -6.03125 -16.6172 -13.2158 -23.4219 -21.333h-48.6035v-43.1152h25.7012c-1.95996 -6.87402 -3.30762 -14.0068 -3.97949 -21.333h-21.7217v-42.8379h25.6562
c2.1084 -7.43555 4.93262 -14.5732 8.39355 -21.333h-121.261c-10.7949 0 -19.5625 7.6377 -19.5625 17.0664v47.1045v21.333v43.1152v21.333v88.9814c0 9.42871 8.76758 17.0664 19.5625 17.0664h259.541c10.8164 0 19.5625 -7.6377 19.5625 -17.0664v-81.085z
M117.333 128.171v-42.8379h64.1064v42.8379h-64.1064zM117.333 149.504h64.1064v43.1152h-64.1064v-43.1152zM117.333 213.952h64.1064v42.4531h-64.1064v-42.4531z" />
    <glyph glyph-name="uniF164" unicode="&#xf164;" 
d="M198.417 60.7705l-166.417 145.615l83.541 73.0986c0 1.16406 1.16504 1.28906 1.70605 1.49707l81.1699 71.0186v-81.1279c103.989 0 249.583 -64.4863 249.583 -251.705c-62.3857 123.522 -145.594 123.522 -249.583 123.522v-81.9189z" />
    <glyph glyph-name="uniF135" unicode="&#xf135;" 
d="M320 85.333h64v42.8379h-64v-42.8379zM128 128.171v-42.8379h64.1064v42.8379h-64.1064zM128 149.504h64.1064v43.1152h-64.1064v-43.1152zM128 213.952h64.1064v42.4531h-64.1064v-42.4531zM320 213.952h64v42.4531h-64v-42.4531zM320 149.504h64v43.1152h-64v-43.1152z
M213.44 213.952h85.2266v42.4531h-85.2266v-42.4531zM213.44 85.333h85.2266v42.8379h-85.2266v-42.8379zM213.44 149.504h85.2266v43.1152h-85.2266v-43.1152zM385.771 320v0c10.8164 0 19.5625 -7.6377 19.5625 -17.0664v-221.867
c0 -9.42871 -8.74609 -17.0664 -19.5625 -17.0664h-259.541c-10.7949 0 -19.5625 7.6377 -19.5625 17.0664v47.1045v21.333v43.1152v21.333v88.9814c0 9.42871 8.76758 17.0664 19.5625 17.0664h259.541z" />
    <glyph glyph-name="uniF11F" unicode="&#xf11f;" 
d="M256 21.333v0c-23.4668 0 -42.667 19.2002 -42.667 42.667h85.334c0 -23.4668 -19.2002 -42.667 -42.667 -42.667zM370.196 138.039v0l35.1367 -35.1367v-17.5693h-298.666v17.5693l35.1367 35.1367v96.6279c0 53.9355 37.4209 99.0869 87.8438 111.033v11.9473
c0 14.582 11.7705 26.3525 26.3525 26.3525s26.3525 -11.7705 26.3525 -26.3525v-11.9473c50.4229 -11.9463 87.8438 -57.0977 87.8438 -111.033v-96.6279z" />
    <glyph glyph-name="uniF132" unicode="&#xf132;" horiz-adv-x="511" 
d="M380.444 341.333c19.5557 0 35.5557 -16 35.5557 -35.5557v-248.889c0 -19.5557 -16 -35.5557 -35.5557 -35.5557h-248.889c-19.5557 0 -35.5557 16 -35.5557 35.5557v248.889c0 19.5557 16 35.5557 35.5557 35.5557h248.889zM202.666 92.4443v124.444h-35.5557v-124.444
h35.5557zM273.777 92.4443v177.778h-35.5557v-177.778h35.5557zM344.889 92.4443v71.1113h-35.5557v-71.1113h35.5557z" />
    <glyph glyph-name="uniF11D" unicode="&#xf11d;" 
d="M96 32v352h320v-352h-320v0zM384 352h-256v-288h256v288v0zM192 256h-32v32h32v-32v0zM192 192h-32v32h32v-32v0zM192 128h-32v32h32v-32v0zM352 256h-128v32h128v-32v0zM352 192h-128v32h128v-32v0zM352 128h-128v32h128v-32v0z" />
    <glyph glyph-name="uniF111" unicode="&#xf111;" 
d="M256 -21.333c-117.82 0 -213.333 95.5127 -213.333 213.333s95.5127 213.333 213.333 213.333s213.333 -95.5127 213.333 -213.333s-95.5127 -213.333 -213.333 -213.333zM295.573 256l-39.5947 -39.5947l-39.5732 39.5947l-24.4053 -24.4268l39.5732 -39.5947
l-39.5732 -39.5518l24.4053 -24.4268l39.5732 39.5732l39.5947 -39.5732l24.4268 24.4268l-39.5947 39.5518l39.5947 39.5947z" />
    <glyph glyph-name="uniF138" unicode="&#xf138;" 
d="M255.981 320.024h0.0371094c5.43164 0.00292969 10.8564 -2.06348 15 -6.20605l135.897 -135.898c8.29492 -8.29395 8.32227 -21.7139 -0.0664062 -30.1025c-8.33105 -8.33105 -21.7959 -8.375 -30.1035 -0.0664062l-99.4131 99.4121v-204.528
c0 -11.7549 -9.55078 -21.3018 -21.333 -21.3018c-11.8643 0 -21.333 9.53711 -21.333 21.3018v204.528l-99.4131 -99.4121c-8.30762 -8.30859 -21.7725 -8.26465 -30.1035 0.0664062c-8.38867 8.38867 -8.36133 21.8086 -0.0664062 30.1025l135.897 135.898
c4.14355 4.14258 9.56836 6.20898 15 6.20605zM85.333 362.667c0 11.8643 9.56738 21.333 21.3691 21.333h229.259h69.21c11.7891 0 21.4961 -9.55078 21.4961 -21.333c0 -11.8643 -9.55957 -21.334 -21.3525 -21.334h-298.629c-11.8672 0 -21.3525 9.55176 -21.3525 21.334
z" />
    <glyph glyph-name="uniF13F" unicode="&#xf13f;" 
d="M215.579 16.8418c-119.054 0 -215.579 96.5254 -215.579 215.579s96.5254 215.579 215.579 215.579s215.579 -96.5254 215.579 -215.579s-96.5254 -215.579 -215.579 -215.579v0zM215.579 394.105c-89.3037 0 -161.685 -72.3809 -161.685 -161.685
s72.3809 -161.684 161.685 -161.684s161.684 72.3799 161.684 161.684s-72.3799 161.685 -161.684 161.685v0zM107.789 259.368h215.579v-53.8945h-215.579v53.8945v0zM406.528 73.9971c5.25488 5.28223 13.7969 5.28223 19.0518 0l85.7461 -85.7461l-38.1035 -38.1035
l-85.7461 85.7461c-5.28223 5.25488 -5.28223 13.7979 0 19.0518l19.0518 19.0518v0z" />
    <glyph glyph-name="uniF14F" unicode="&#xf14f;" 
d="M256 160h192v-32h-192v32zM256 256h192v-32h-192v32zM32 384h448v-32h-448v32zM32 32h448v-32h-448v32zM199.156 215.446c15.0059 -9.42383 14.9697 -24.7256 0 -34.127l-107.986 -67.8184c-15.0059 -9.42383 -27.1699 -3.04883 -27.1699 14.7939v140.176
c0 17.5947 12.2012 24.1953 27.1699 14.7939z" />
    <glyph glyph-name="uniF154" unicode="&#xf154;" 
d="M106.667 298.542c0 23.6328 19.1367 42.791 42.791 42.791h213.084c23.6328 0 42.791 -19.1367 42.791 -42.791v-213.084c0 -23.6328 -19.1367 -42.791 -42.791 -42.791h-213.084c-23.6328 0 -42.791 19.1367 -42.791 42.791v213.084zM128 298.542v-213.084
c0 -11.8633 9.59863 -21.458 21.458 -21.458h213.084c11.8633 0 21.458 9.59863 21.458 21.458v213.084c0 11.8633 -9.59863 21.458 -21.458 21.458h-213.084c-11.8633 0 -21.458 -9.59863 -21.458 -21.458zM298.667 85.333v213.334h64v-213.334h-64z" />
    <glyph glyph-name="uniF16E" unicode="&#xf16e;" 
d="M128 362.667h256c25.5996 0 42.667 -17.0674 42.667 -42.667v-256c0 -25.5996 -17.0674 -42.667 -42.667 -42.667h-256c-25.79 0 -42.667 17.0674 -42.667 42.667v64h42.667v-64h256v256h-256v-64h-42.667v64c0 25.5996 16.877 42.667 42.667 42.667zM261.184 171.74
h-175.851v42.667h175.851l-54.0938 54.0938l30.165 30.166l75.4277 -75.4277l30.165 -30.166l-105.593 -105.593l-30.165 30.165z" />
    <glyph glyph-name="uniF157" unicode="&#xf157;" 
d="M265.6 384c22.9756 0 41.6006 -18.4648 41.6006 -41.5996c0 -22.9756 -18.8525 -41.6006 -41.6006 -41.6006c-22.9746 0 -41.5996 18.4648 -41.5996 41.6006c0 22.9746 18.4648 41.5996 41.5996 41.5996zM265.6 224c22.9756 0 41.6006 -18.4648 41.6006 -41.5996
c0 -22.9756 -18.8525 -41.6006 -41.6006 -41.6006c-22.9746 0 -41.5996 18.4648 -41.5996 41.6006c0 22.9746 18.4648 41.5996 41.5996 41.5996zM265.6 64c22.9756 0 41.6006 -18.4648 41.6006 -41.5996c0 -22.9756 -18.8525 -41.6006 -41.6006 -41.6006
c-22.9746 0 -41.5996 18.4648 -41.5996 41.6006c0 22.9746 18.4648 41.5996 41.5996 41.5996z" />
    <glyph glyph-name="uniF15E" unicode="&#xf15e;" 
d="M75.3135 187.785l124.451 -124.451l260.215 260.215l22.6279 -22.627l-282.843 -282.843l-147.078 147.078z" />
    <glyph glyph-name="uniF153" unicode="&#xf153;" 
d="M128 298.542v-213.084c0 -11.8633 9.59863 -21.458 21.458 -21.458h213.084c11.8633 0 21.458 9.59863 21.458 21.458v213.084c0 11.8633 -9.59863 21.458 -21.458 21.458h-213.084c-11.8633 0 -21.458 -9.59863 -21.458 -21.458zM106.667 298.542
c0 23.6328 19.1367 42.791 42.791 42.791h213.084c23.6328 0 42.791 -19.1367 42.791 -42.791v-213.084c0 -23.6328 -19.1367 -42.791 -42.791 -42.791h-213.084c-23.6328 0 -42.791 19.1367 -42.791 42.791v213.084zM149.333 85.333v213.334h64v-213.334h-64z" />
    <glyph glyph-name="uniF10C" unicode="&#xf10c;" 
d="M128.018 352h192.238c35.2051 0 63.7441 -28.8623 63.7441 -64.2734v-255.453c0 -35.4971 -28.8057 -64.2734 -63.7441 -64.2734h-224.512c-35.2051 0 -63.7441 28.8623 -63.7441 64.2734v255.453c0 35.4971 28.8057 64.2734 63.7441 64.2734h0.264648
c0.584961 35.9355 29.1562 64 63.7354 64h224.512c35.2051 0 63.7441 -28.8623 63.7441 -64.2734v-255.453c0 -35.4971 -28.8877 -64.2734 -63.7441 -64.2734v32c17.2715 0 31.7441 14.5381 31.7441 32.2734v255.453c0 17.833 -14.3086 32.2734 -31.7441 32.2734h-224.512
c-17.083 0 -31.165 -13.9189 -31.7266 -32zM64 287.727v-255.453c0 -17.833 14.3086 -32.2734 31.7441 -32.2734h224.512c17.3184 0 31.7441 14.5029 31.7441 32.2734v255.453c0 17.833 -14.3086 32.2734 -31.7441 32.2734h-224.512
c-17.3184 0 -31.7441 -14.5029 -31.7441 -32.2734zM128 160h160v-32h-160v32zM128 224h160v-32h-160v32z" />
    <glyph glyph-name="uniF14E" unicode="&#xf14e;" 
d="M224 224v32h128v-32h-128zM224 160v32h128v-32h-128zM224 96v32h128v-32h-128zM160 224v32h32v-32h-32zM160 160v32h32v-32h-32zM160 96v32h32v-32h-32zM96 319.727v-287.453c0 -17.7744 14.4854 -32.2734 32.2734 -32.2734h255.453
c17.7744 0 32.2734 14.4854 32.2734 32.2734v287.453c0 17.7744 -14.4854 32.2734 -32.2734 32.2734h-255.453c-17.7744 0 -32.2734 -14.4854 -32.2734 -32.2734zM64 319.727c0 35.4971 28.8623 64.2734 64.2734 64.2734h255.453
c35.4971 0 64.2734 -28.8623 64.2734 -64.2734v-287.453c0 -35.4971 -28.8623 -64.2734 -64.2734 -64.2734h-255.453c-35.4971 0 -64.2734 28.8623 -64.2734 64.2734v287.453z" />
    <glyph glyph-name="uniF161" unicode="&#xf161;" 
d="M311.272 125.046c-3.27246 -3 -7.34082 -6.20508 -12.2041 -9.61426c-4.86426 -3.40918 -10.1143 -6.54492 -15.75 -9.40918c-5.63672 -2.86328 -11.3867 -5.25 -17.25 -7.15918c-5.86426 -1.90918 -11.4316 -2.86328 -16.7051 -2.86328
c-4.72656 0 -8.7041 0.65918 -11.9316 1.97754s-5.84082 3.15918 -7.84082 5.52246s-3.43164 5.25 -4.29492 8.65918c-0.864258 3.40918 -1.2959 7.15918 -1.2959 11.25c0 5.72754 0.65918 12.3867 1.97754 19.9775s2.93164 15.4541 4.84082 23.5908
c1.90918 8.13574 3.93164 16.25 6.06836 24.3408c2.13574 8.09082 4.02246 15.5449 5.65918 22.3633c0.635742 2.36426 1.9082 4.38672 3.81738 6.06836s4.06836 3.0459 6.47754 4.09082c2.40918 1.0459 4.90918 1.81836 7.5 2.31836s4.93164 0.75 7.02246 0.75
c3.81836 0 6.40918 -0.705078 7.77344 -2.11328c1.36328 -1.40918 2.04492 -3.2959 2.04492 -5.65918c0 -2 -0.454102 -4.88672 -1.36328 -8.65918c-0.90918 -3.77344 -2.0459 -8.0459 -3.40918 -12.8184s-2.81836 -9.90918 -4.36328 -15.4092
c-1.5459 -5.5 -3 -11 -4.36426 -16.5c-1.36328 -5.5 -2.5 -10.8633 -3.40918 -16.0908s-1.36328 -9.93164 -1.36328 -14.1133c0 -4.0918 0.454102 -7.3418 1.36328 -9.75c0.90918 -2.40918 2.77344 -3.61426 5.59082 -3.61426c3.27344 0 6.90918 1.13672 10.9092 3.40918
s8.0459 5.02246 12.1367 8.25s8.09082 6.56836 12 10.0225c3.90918 3.45508 7.36328 6.40918 10.3633 8.86426v-27.6816zM250.318 265.228c0 2.09082 0.454102 4.4541 1.36328 7.09082c0.90918 2.63574 2.38672 5.11328 4.43164 7.43164
c2.0459 2.31836 4.77344 4.27246 8.18262 5.86328c3.4082 1.59082 7.6582 2.38672 12.75 2.38672c3.18164 0 6.18164 -0.363281 9 -1.09082c2.81738 -0.727539 5.27246 -1.84082 7.36328 -3.34082s3.75 -3.47754 4.97754 -5.93164
c1.22656 -2.45508 1.84082 -5.36426 1.84082 -8.72754c0 -3.09082 -0.5 -6.09082 -1.5 -9s-2.59082 -5.5 -4.77344 -7.77246c-2.18164 -2.27344 -4.93164 -4.11426 -8.25 -5.52344c-3.31738 -1.40918 -7.29492 -2.11328 -11.9316 -2.11328
c-8 0 -13.9092 1.88672 -17.7266 5.65918c-3.81836 3.77246 -5.72754 8.79492 -5.72754 15.0684zM272 32c97.2021 0 176 78.7979 176 176s-78.7979 176 -176 176s-176 -78.7979 -176 -176s78.7979 -176 176 -176zM272 0c-114.875 0 -208 93.125 -208 208s93.125 208 208 208
s208 -93.125 208 -208s-93.125 -208 -208 -208z" />
    <glyph glyph-name="uniF15A" unicode="&#xf15a;" 
d="M416 240c0 -64.4463 -38.4531 -121.58 -96 -146.686v-45.3145h-128v45.3145c-57.5469 25.1055 -96 82.2393 -96 146.686c0 88.3652 71.6348 160 160 160s160 -71.6348 160 -160zM224 80h64v35.5088l10.668 3.77051c50.7227 17.9277 85.332 66.0361 85.332 120.721
c0 70.6924 -57.3076 128 -128 128s-128 -57.3076 -128 -128c0 -54.6846 34.6094 -102.793 85.332 -120.721l10.668 -3.77051v-35.5088zM208 -32v32h96v-32h-96z" />
    <glyph glyph-name="uniF140" unicode="&#xf140;" 
d="M215.579 16.8418c-119.054 0 -215.579 96.5254 -215.579 215.579s96.5254 215.579 215.579 215.579s215.579 -96.5254 215.579 -215.579s-96.5254 -215.579 -215.579 -215.579v0zM215.579 394.105c-89.3037 0 -161.685 -72.3809 -161.685 -161.685
s72.3809 -161.684 161.685 -161.684s161.684 72.3799 161.684 161.684s-72.3799 161.685 -161.684 161.685v0zM242.526 124.632h-53.8945v80.8418h-80.8428v53.8945h80.8428v80.8428h53.8945v-80.8428h80.8418v-53.8945h-80.8418v-80.8418v0zM406.528 73.9971
c5.25488 5.28223 13.7969 5.28223 19.0518 0l85.7461 -85.7461l-38.1035 -38.1035l-85.7461 85.7461c-5.28223 5.25488 -5.28223 13.7979 0 19.0518l19.0518 19.0518v0z" />
    <glyph glyph-name="uniF17C" unicode="&#xf17c;" 
d="M106.667 178.196v26.3525h193.255v-26.3525h-193.255zM282.353 195.765c0 24.2568 19.665 43.9219 43.9219 43.9219s43.9219 -19.665 43.9219 -43.9219s-19.665 -43.9219 -43.9219 -43.9219s-43.9219 19.665 -43.9219 43.9219zM320 75.5449
c0 24.2578 19.6641 43.9219 43.9219 43.9219c24.2568 0 43.9209 -19.6641 43.9209 -43.9219c0 -24.2568 -19.6641 -43.9209 -43.9209 -43.9209c-24.2578 0 -43.9219 19.6641 -43.9219 43.9209zM322.098 319.396c5.68066 17.6777 22.2588 30.4707 41.8242 30.4707
c24.2568 0 43.9209 -19.6641 43.9209 -43.9209c0 -24.2578 -19.6641 -43.9219 -43.9209 -43.9219c-19.7676 0 -36.4844 13.0586 -41.9961 31.0186h-53.5596c-10.4834 0 -20.5381 -4.16406 -27.9512 -11.5771l-9.30566 -9.30566
c-12.3545 -12.3555 -29.1123 -19.2969 -46.5859 -19.2969h-77.8564v26.3535h77.8564c10.4844 0 20.5391 4.16504 27.9521 11.5781l9.30469 9.30469c12.3555 12.3555 29.1133 19.2969 46.5859 19.2969h53.7314zM106.667 103.529v26.3535h77.8564
c17.4736 0 34.2314 -6.94141 46.5859 -19.2969l9.30566 -9.30566c7.41309 -7.41309 17.4678 -11.5771 27.9512 -11.5771h85.0127v-26.3535h-85.0127c-17.4727 0 -34.2305 6.94141 -46.5859 19.2969l-9.30469 9.30469c-7.41309 7.41309 -17.4678 11.5781 -27.9521 11.5781
h-77.8564z" />
    <glyph glyph-name="uniF126" unicode="&#xf126;" 
d="M85.333 64h298.667v170.667h-298.667v-170.667zM392.704 288.234v0c6.97559 0 12.6289 -5.69531 12.6289 -12.7148v-220.139c0 -7.01855 -5.65332 -12.7139 -12.6289 -12.7139h-316.054c-6.97559 0 -12.6504 5.69531 -12.6504 12.7139v273.238
c0 7.01855 5.6748 12.7139 12.6504 12.7139h95.4033c18.9648 0 26.7939 -53.0986 47.4453 -53.0986h173.205zM181.781 158.093h106.667c6.37891 0 11.5625 5.18359 11.5625 11.5625s-5.18359 11.542 -11.5625 11.542h-106.667
c-6.37891 0 -11.5625 -5.16309 -11.5625 -11.542s5.18359 -11.5625 11.5625 -11.5625zM181.333 110.541h106.667c6.37891 0 11.5625 5.18359 11.5625 11.5625s-5.18359 11.541 -11.5625 11.541h-106.667c-6.37793 0 -11.5625 -5.16211 -11.5625 -11.541
s5.18457 -11.5625 11.5625 -11.5625z" />
    <glyph glyph-name="uniF110" unicode="&#xf110;" 
d="M256 -64c-141.397 0 -256 114.624 -256 256s114.603 256 256 256c141.376 0 256 -114.624 256 -256s-114.624 -256 -256 -256v0zM341.333 248.896l-28.4365 28.4365l-56.8965 -56.874l-56.8965 56.874l-28.4365 -28.4365l56.874 -56.8965l-56.874 -56.875l28.458 -28.458
l56.875 56.8955l56.875 -56.8955l28.458 28.458l-56.8955 56.875l56.8955 56.8965v0z" />
    <glyph glyph-name="uniF10E" unicode="&#xf10e;" 
d="M32 320v32h448v-32h-448zM192 64v192h32v-192h-32zM288 64v192h32v-192h-32zM192 384v-64h-32v64.0332c0 17.6553 12.0107 31.9668 27.5088 31.9668h136.982c15.1924 0 27.5088 -14.165 27.5088 -31.9668v-64.0332h-32v64h-128zM128 32.2734
c0 -17.8066 14.3896 -32.2734 31.9873 -32.2734h192.025c17.7783 0 31.9873 14.3105 31.9873 32.2734v287.727h-256v-287.727zM96 352h320v-319.727c0 -35.4971 -28.3975 -64.2734 -63.9873 -64.2734h-192.025c-35.3389 0 -63.9873 28.8623 -63.9873 64.2734v319.727z" />
    <glyph glyph-name="uniF114" unicode="&#xf114;" 
d="M430.198 59.5693l-41.7676 -41.7676l-125.332 125.332l-125.331 -125.332l-41.7676 41.7676l125.332 125.332l-125.332 125.331l41.7676 41.7676l125.331 -125.332l125.332 125.332l41.7676 -41.7676l-125.332 -125.331z" />
    <glyph glyph-name="uniF173" unicode="&#xf173;" horiz-adv-x="511" 
d="M309.333 106.667h106.667v-21.334h-101.334l-16 -21.333l-32 42.667h42.667zM368 149.333l16 21.334l32 -42.667h-42.667h-106.667v21.333h101.334zM255.719 37.1514c-4.26855 -0.170898 -8.60059 -0.257812 -12.9883 -0.257812
c-83.6484 0 -146.73 31.5527 -146.73 73.3652c0 5.65332 1.2373 11.0938 3.43457 16.3203c30.3037 -29.7627 78.1006 -49.8096 132.669 -52.127c5.48047 -13.9248 13.5498 -26.5576 23.6152 -37.3008zM224.103 112.396c-74.2109 4.30078 -128.103 34.165 -128.103 72.832
c0 5.65332 1.2373 11.0723 3.43457 16.2988c29.6348 -29.0869 76 -48.8994 129.067 -51.9268c-2.93164 -10.251 -4.50195 -21.0762 -4.50195 -32.2676c0 -1.65332 0.0341797 -3.29883 0.102539 -4.93652zM370.71 230.951c-9.38867 2.4248 -19.2324 3.71582 -29.377 3.71582
c-35.0664 0 -66.6035 -15.4463 -88.1279 -39.9189c-3.45312 -0.110352 -6.94531 -0.166992 -10.4746 -0.166992c-83.6484 0 -146.73 31.5527 -146.73 73.3867c0 41.835 63.082 73.3652 146.73 73.3652c83.6689 0 146.752 -31.5303 146.752 -73.3652
c0 -13.6885 -6.75391 -26.2754 -18.7725 -37.0166z" />
    <glyph glyph-name="uniF133" unicode="&#xf133;" 
d="M241.915 277.295c0.147461 0.15625 0.297852 0.310547 0.451172 0.462891c6.54297 6.50977 16.2637 7.90039 24.167 4.15918c2.13965 -1.00977 4.14746 -2.39648 5.92285 -4.15918c0.15332 -0.152344 0.303711 -0.306641 0.451172 -0.462891l70.707 -71.0254
c8.31934 -8.3623 8.27734 -21.8662 -0.0644531 -30.1865c-4.18164 -4.13867 -9.62109 -6.20801 -15.0615 -6.20801c-5.48242 0 -10.9434 2.09082 -15.125 6.27246l-34.2383 34.4023v-134.499l34.249 34.4023c8.32031 8.3418 21.8242 8.36328 30.165 0.0644531
c8.3418 -8.29883 8.38379 -21.8242 0.0859375 -30.166l-71.083 -71.4238c-3.79688 -3.7959 -8.64746 -5.86914 -13.6133 -6.21777c-0.504883 -0.0361328 -1.01074 -0.0537109 -1.51758 -0.0537109c-0.46582 0 -0.931641 0.015625 -1.39648 0.0449219
c-5.00684 0.324219 -9.90723 2.39941 -13.7344 6.22656l-71.082 71.4238c-8.29883 8.3418 -8.25684 21.8672 0.0849609 30.166c8.3623 8.29883 21.8457 8.25586 30.165 -0.0644531l35.0107 -35.168v136.029l-35 -35.167
c-4.18066 -4.18164 -9.64258 -6.27246 -15.125 -6.27246c-5.44043 0 -10.8799 2.06934 -15.0615 6.20801c-8.34082 8.32031 -8.38379 21.8242 -0.0634766 30.1865zM406.762 148.652c-0.311523 -0.0732422 -0.626953 -0.110352 -0.946289 -0.110352
c-0.0927734 0 -0.185547 0.00292969 -0.27832 0.00976562c-0.0615234 -0.00488281 -0.123047 -0.00976562 -0.18457 -0.0136719v0.0302734c-4.8418 0.5625 -8.70996 9.89258 -8.70996 21.3066c0 11.415 3.86816 20.7441 8.70996 21.3066v0.0439453
c26.0264 3.49902 46.2295 25.6211 46.2295 52.6289c0 29.1416 -23.5098 52.8857 -52.5439 53.3125l-1.28027 -0.170898c-1.57812 -0.212891 -3.15723 -0.426758 -4.75684 -0.576172l-27.0723 -2.6875l-13.8672 23.4238c-16.3408 27.6484 -53.3545 45.5039 -94.2715 45.5039
c-40.918 0 -77.9307 -17.8555 -94.2939 -45.4824l-13.8447 -23.4453l-27.0938 2.6875c-1.55664 0.170898 -3.11426 0.363281 -4.67188 0.576172l-1.30078 0.170898c-29.0566 -0.426758 -52.5869 -24.1709 -52.5869 -53.3125c0 -26.9863 20.2021 -49.1094 46.25 -52.6289
v-0.0537109c4.84277 -0.65625 8.66797 -9.94629 8.66797 -21.2969s-3.8252 -20.6396 -8.66797 -21.2959v-0.0205078c-0.0332031 0.00292969 -0.0664062 0.00488281 -0.100586 0.0078125c-0.148438 -0.0166016 -0.296875 -0.0244141 -0.447266 -0.0244141
c-0.374023 0 -0.743164 0.0517578 -1.10547 0.154297c-48.8994 4.4668 -87.2637 45.1396 -87.2637 95.1582c0 53.0137 42.9658 95.9795 96.0215 95.9795c3.22168 0 6.27246 -0.640625 9.42969 -0.939453c23.1895 39.2109 73.0664 66.4326 131.008 66.4326
c57.9629 0 107.818 -27.2217 131.008 -66.4531c3.15723 0.319336 6.22949 0.959961 9.47168 0.959961c53.0137 0 95.9785 -42.9658 95.9785 -95.9795c0 -50.1016 -38.5117 -90.8477 -87.4863 -95.2021z" />
    <glyph glyph-name="uniF155" unicode="&#xf155;" horiz-adv-x="511" 
d="M384 319.265v-245.128c-106.013 0 -159.966 -34.7881 -160 -34.7646c-0.0332031 -0.0234375 -53.9863 34.7646 -160 34.7646v245.128s8.04004 0.735352 20.957 0.735352c32.2168 0 95.1445 -4.57129 139.043 -36.4951c43.8994 31.9248 106.827 36.4951 139.044 36.4951
c12.917 0 20.9561 -0.735352 20.9561 -0.735352zM213.11 262.513l-3.4043 2.48242c-16.6885 12.1719 -38.6611 21.1016 -65.3096 26.5391c-23.1318 4.7207 -43.9619 5.7998 -58.6162 5.84766v-200.963c18.7803 -0.821289 35.7705 -1.97168 52.9092 -4.89453
c19.2383 -3.28125 37.3584 -7.14746 53.8574 -12.9336c7.93945 -2.78516 14.7783 -5.59277 20.5625 -8.22461v192.146h0.000976562zM362.221 297.382c-14.6543 -0.0478516 -35.4854 -1.12695 -58.6172 -5.84766c-26.6475 -5.4375 -48.6211 -14.3672 -65.3096 -26.5391
l-3.40332 -2.48242v-192.146c5.78418 2.63184 12.624 5.43945 20.5625 8.22461c16.499 5.78613 34.6191 9.65234 53.8574 12.9336c17.1387 2.92285 34.1299 4.07324 52.9092 4.89453v200.963h0.000976562zM346.304 236.115
c-44.5762 -4.11914 -75.6328 -16.6055 -95.4971 -24.5693v20.6768c2.4043 0.917969 4.92578 1.84082 7.57227 2.76172c16.5283 5.74707 34.3125 11.4053 53.585 14.6641c10.957 1.85352 22.6738 4.24609 34.3398 5.45801v-18.9912v0zM346.304 160.391v0v-19.1182
c-44.5762 -3.95801 -75.6328 -14.8018 -95.4971 -22.7666v20.6797c2.4043 0.917969 4.92578 1.84082 7.57227 2.76074c16.5283 5.74902 34.3125 11.4072 53.584 14.666c10.958 1.85352 22.6738 2.9873 34.3408 3.77832zM346.304 206.911v0v-19.1182
c-44.5762 -3.95801 -75.6328 -14.8018 -95.4971 -22.7666v20.6797c2.4043 0.917969 4.92578 1.84082 7.57227 2.76074c16.5283 5.74805 34.3125 11.4072 53.584 14.666c10.958 1.85352 22.6738 2.9873 34.3408 3.77832zM101.696 236.115h0.000976562v18.9912
c11.666 -1.21191 23.3818 -3.60449 34.3398 -5.45801c19.2715 -3.25879 37.0566 -8.91699 53.584 -14.6641c2.64648 -0.920898 5.16895 -1.84277 7.57324 -2.76172v-20.6768c-19.8652 7.96387 -50.9209 20.4502 -95.498 24.5693zM101.696 141.272h0.000976562v19.1182
c11.666 -0.791016 23.3818 -1.9248 34.3398 -3.77734c19.2715 -3.25879 37.0566 -8.91797 53.584 -14.666c2.64648 -0.920898 5.16895 -1.84375 7.57324 -2.76172v-20.6797c-19.8652 7.96484 -50.9209 18.8086 -95.498 22.7666zM101.696 187.793v0h0.000976562v19.1182
c11.666 -0.791016 23.3818 -1.9248 34.3398 -3.77832c19.2715 -3.25879 37.0566 -8.91797 53.584 -14.666c2.64648 -0.919922 5.16895 -1.84277 7.57324 -2.76074v-20.6797c-19.8652 7.96484 -50.9209 18.8086 -95.498 22.7666z" />
    <glyph glyph-name="uniF124" unicode="&#xf124;" 
d="M256 -21.333c-117.82 0 -213.333 95.5127 -213.333 213.333s95.5127 213.333 213.333 213.333s213.333 -95.5127 213.333 -213.333s-95.5127 -213.333 -213.333 -213.333zM277.333 128h42.6885v128h-42.6885v-128zM192 128h42.667v128h-42.667v-128z" />
    <glyph glyph-name="uniF13E" unicode="&#xf13e;" 
d="M256 -64c-141.397 0 -256 114.624 -256 256s114.603 256 256 256c141.376 0 256 -114.624 256 -256s-114.624 -256 -256 -256v0zM277.333 298.667h-42.666v-128h42.666v128v0zM277.333 128h-42.666v-42.667h42.666v42.667v0z" />
    <glyph glyph-name="uniF177" unicode="&#xf177;" 
d="M273.777 362.667l100.268 -100.267v-200.534c0 -18.3818 -15.04 -33.4219 -33.4229 -33.4219h-200.7c-18.3818 0 -33.2549 15.04 -33.2549 33.4219l0.166992 267.378c0 18.3828 14.873 33.4229 33.2549 33.4229h133.688zM256 341.333h-115.911
c-6.53516 0 -11.9219 -5.42383 -11.9219 -12.1016l-0.166992 -267.365c0 -6.66406 5.38672 -12.0889 11.9219 -12.0889h200.7c6.60059 0 12.0889 5.48926 12.0889 12.0889v191.697l-2.43652 2.43652h-94.2744v85.333z" />
    <glyph glyph-name="uniF17D" unicode="&#xf17d;" 
d="M448 192h-32v128c0 17.6729 -14.3271 32 -32 32h-256c-17.6729 0 -32 -14.3271 -32 -32v-288c0 -17.6729 14.3271 -32 32 -32h128v-32h-128c-35.3467 0 -64 28.6533 -64 64v288c0 35.3467 28.6533 64 64 64h256c35.3467 0 64 -28.6533 64 -64v-128zM353.894 99.5967
l78.1064 -78.1064l-22.627 -22.627l-80.583 80.582c-16.6504 -9.81445 -36.0625 -15.4453 -56.79 -15.4453c-61.8555 0 -112 50.1445 -112 112s50.1445 112 112 112s112 -50.1445 112 -112c0 -29.5312 -11.4297 -56.3936 -30.1064 -76.4033zM272 96
c44.1826 0 80 35.8174 80 80s-35.8174 80 -80 80s-80 -35.8174 -80 -80s35.8174 -80 80 -80z" />
    <glyph glyph-name="uniF102" unicode="&#xf102;" 
d="M248 129.689c-9.32227 3.26367 -16 12.0957 -16 22.4854c0 13.1631 10.752 23.8291 24 23.8291s24 -10.666 24 -23.8291c0 -10.3896 -6.67773 -19.2217 -16 -22.4854v-25.3438c0 -4.30957 -3.71191 -7.78711 -8 -7.78711c-4.41602 0 -8 3.41406 -8 7.78711v25.3438z
M157.333 77.333h197.334v125.334h-197.334v-125.334zM205.333 248v-24h101.206l0.12793 24c0 27.9893 -22.6777 50.667 -50.667 50.667s-50.667 -22.6777 -50.667 -50.667zM256 320v0c39.7656 0 72 -32.2344 72 -72l-0.234375 -24h48.2344v-168h-240v168h48v24
c0 39.7656 32.2344 72 72 72z" />
    <glyph glyph-name="uniF118" unicode="&#xf118;" 
d="M432 192h16v-128h32v-96h-96v96h32v96h-128v-96h32v-96h-96v96h32v96h-128v-96h32v-96h-96v96h32v112v16h160v96h-32v96h96v-96h-32v-96h144z" />
    <glyph glyph-name="uniF175" unicode="&#xf175;" 
d="M447.808 242.526v0l0.192383 -202.105c0 -22.2314 -17.2803 -40.4209 -38.4004 -40.4209h-307.199c-21.1201 0 -38.4004 18.1895 -38.4004 40.4209v202.105c0 14.5518 7.2959 27.2842 18.2402 34.3574l173.76 107.116l173.76 -107.116
c10.9443 -7.07324 18.0479 -19.8057 18.0479 -34.3574zM256 141.474v0l158.592 104.286l-158.592 97.8193l-158.592 -97.8193z" />
    <glyph glyph-name="uniF16B" unicode="&#xf16b;" 
d="M121.419 341.333h268.8c19.9463 0 36.2666 -16.3193 36.2666 -36.2666v-204.8c0 -19.9463 -16.3203 -36.2666 -36.2666 -36.2666h-241.066l-63.8193 -64v305.066c0 19.9473 16.1387 36.2666 36.0859 36.2666zM341.333 149.333v0v42.667h-170.848v-42.667h170.848z
M170.485 213.333h170.848v42.667h-170.848v-42.667z" />
    <glyph glyph-name="uniF130" unicode="&#xf130;" 
d="M298.277 105.068c-51.499 -20.8213 -110.464 3.0293 -131.712 53.2266c-21.2695 50.2188 3.26367 107.798 54.7627 128.619c51.498 20.8213 110.464 -3.00879 131.712 -53.248c21.248 -50.1973 -3.26367 -107.776 -54.7627 -128.598zM452.41 163.927
c3.45605 19.4561 4.16016 39.4668 1.19531 59.542c-20.2451 0.46875 -39.2539 12.2666 -47.4668 31.6797c-8.23438 19.4131 -3.30664 40.917 10.6875 55.2109c-11.498 15.0605 -25.1299 28.0527 -40.1914 38.9326c-14.6562 -14.25 -37.1631 -19.3281 -57.4727 -11.1357
c-20.0312 8.10645 -32.1699 26.8799 -32.4688 46.7842c-20.2031 2.73047 -40.96 2.75195 -61.6963 -0.938477c0.192383 -20.416 -12.0527 -39.8506 -32.5547 -48.1494c-19.2637 -7.76562 -40.4053 -3.45605 -55.04 9.15137
c-14.3789 -11.2422 -26.6875 -24.3838 -37.0771 -38.7197c14.4639 -14.3145 19.584 -36.2451 11.1787 -55.9785c-8.06445 -18.9229 -26.3896 -30.5283 -46.0586 -31.5732c-2.04785 -16.4697 -1.96289 -33.3438 0.533203 -50.1758
c20.2666 -0.469727 39.2744 -12.2881 47.4883 -31.7012c8.23438 -19.4141 3.28516 -40.918 -10.6885 -55.2324c11.3066 -14.8057 24.7471 -27.5205 39.5098 -38.3145c14.6562 12.8213 35.9893 17.2588 55.3389 9.42871c19.6475 -7.93555 31.6152 -26.1543 32.3623 -45.6104
c16.6611 -2.49609 33.749 -2.94434 50.8799 -1.10938c1.21582 19.0508 13.0771 36.7148 32.3418 44.501c20.5225 8.27734 43.2422 2.9873 57.8555 -11.6045c16.3838 11.0498 30.4854 24.4258 42.4111 39.2744c-13.0352 14.293 -17.4932 35.0508 -9.45117 53.9307
c8.38379 19.6689 27.8398 31.6367 48.3838 31.8076z" />
    <glyph glyph-name="uniF168" unicode="&#xf168;" horiz-adv-x="511" 
d="M306.133 326.4h74.3115c19.5557 0 35.5557 -16.3203 35.5557 -36.2666v-253.867c0 -19.9463 -16 -36.2666 -35.5557 -36.2666h-248.889c-19.5557 0 -35.5557 16.3203 -35.5557 36.2666v253.867c0 19.9463 16 36.2666 35.5557 36.2666h74.3105
c7.4668 21.0342 27.0225 36.2666 50.1338 36.2666c23.1104 0 42.666 -15.2324 50.1328 -36.2666zM256 327.111v0c-9.77832 0 -17.7783 -8 -17.7783 -17.7783c0 -9.77734 8 -17.7773 17.7783 -17.7773c9.77734 0 17.7773 8 17.7773 17.7773
c0 9.77832 -8 17.7783 -17.7773 17.7783zM256 256v0c-29.5117 0 -53.334 -23.8223 -53.334 -53.333c0 -29.5117 23.8223 -53.334 53.334 -53.334c29.5107 0 53.333 23.8223 53.333 53.334c0 29.5107 -23.8223 53.333 -53.333 53.333zM362.666 42.667v0v24.8887
c0 35.5557 -71.1104 55.1113 -106.666 55.1113s-106.667 -19.5557 -106.667 -55.1113v-24.8887h213.333z" />
    <glyph glyph-name="uniF120" unicode="&#xf120;" 
d="M341.333 42.667v106.666h42.667v42.667h-128v-42.667h42.667v-106.666h-106.667v106.666h42.667v42.667h-128v-42.667h42.666v-106.666h-106.666v106.666h42.666v64h21.334h128v42.667h-42.667v106.667h106.667v-106.667h-42.667v-42.667h128v0h21.333v-64h42.667
v-106.666h-106.667z" />
    <glyph glyph-name="uniF137" unicode="&#xf137;" 
d="M272 0c-114.88 0 -208 93.1201 -208 208s93.1201 208 208 208s208 -93.1201 208 -208s-93.1201 -208 -208 -208v0zM272 384c-97.2158 0 -176 -78.7842 -176 -176s78.7842 -176 176 -176c97.1836 0 176 78.7842 176 176s-78.8164 176 -176 176v0zM256 224v96h32v-96h64
v-32h-96v32v0z" />
    <glyph glyph-name="uniF12C" unicode="&#xf12c;" 
d="M256 -21.333c-117.82 0 -213.333 95.5127 -213.333 213.333s95.5127 213.333 213.333 213.333s213.333 -95.5127 213.333 -213.333s-95.5127 -213.333 -213.333 -213.333zM255.995 99.4795c47.0605 0 85.3281 38.29 85.3281 85.3281
c0 47.0605 -38.2676 85.3516 -85.3281 85.3516c-6.4209 0 -11.6318 -5.21094 -11.6318 -11.6318c0 -6.41992 5.21094 -11.6309 11.6318 -11.6309c34.2197 0 62.0654 -27.8457 62.0654 -62.0889c0 -34.2197 -27.8457 -62.0654 -62.0654 -62.0654
s-62.0654 27.8457 -62.0654 62.0654c0 6.44336 -5.21094 11.6318 -11.6318 11.6318c-6.41992 0 -11.6309 -5.18848 -11.6309 -11.6318c0 -47.0381 38.29 -85.3281 85.3281 -85.3281z" />
    <glyph glyph-name="uniF17B" unicode="&#xf17b;" 
d="M380.718 77.0684l-0.234375 -0.178711l68.1826 -68.1836l-22.627 -22.627l-72.7139 72.7129c-31.1338 -17.8613 -63.5762 -26.792 -97.3252 -26.792c-82.4746 0 -157.142 53.333 -224 160c27.0264 43.1182 55.3291 77.5215 84.9072 103.21l-52.9072 52.9082
l22.627 22.627l55.7705 -55.7705c0.0820312 0.0556641 0.164062 0.112305 0.245117 0.167969l50.543 -50.543c-0.0732422 -0.0644531 -0.147461 -0.12793 -0.220703 -0.192383l22.708 -22.708l0.228516 0.18457l89.9824 -89.9824l-0.18457 -0.228516l22.708 -22.708
c0.0644531 0.0732422 0.12793 0.147461 0.192383 0.220703zM405.142 97.8984l-59.5479 59.5479c4.1377 10.7217 6.40625 22.373 6.40625 34.5537c0 53.0195 -42.9805 96 -96 96c-12.1807 0 -23.832 -2.26855 -34.5537 -6.40625l-50.2715 50.2715
c27.293 13.4229 55.5674 20.1348 84.8252 20.1348c82.4746 0 157.142 -53.333 224 -160c-23.9512 -38.2109 -48.9033 -69.5781 -74.8584 -94.1016zM319.452 183.588l-71.8643 71.8643c2.75293 0.361328 5.56055 0.547852 8.41211 0.547852c35.3467 0 64 -28.6533 64 -64
c0 -2.85156 -0.186523 -5.65918 -0.547852 -8.41211zM172.578 239.539c-8.00391 -14.0156 -12.5781 -30.2432 -12.5781 -47.5391c0 -53.0195 42.9805 -96 96 -96c17.2959 0 33.5234 4.57422 47.5391 12.5781l-23.9209 23.9209
c-7.30762 -2.90332 -15.2764 -4.49902 -23.6182 -4.49902c-35.3467 0 -64 28.6533 -64 64c0 8.3418 1.5957 16.3105 4.49902 23.6182z" />
    <glyph glyph-name="uniF141" unicode="&#xf141;" 
d="M330.181 149.733c26.3486 -6.70508 44.7422 -18.7715 51.6758 -31.4209c1.9834 -3.61719 3.5918 -7.34375 4.84961 -11.1523c7.14062 -21.6113 -7.5166 -53.9561 -30.1016 -53.9561l-96.749 -0.00195312h-0.833008h-0.833008l-96.748 0.00195312
c-22.4756 0 -38.8584 32.5029 -31.7705 53.9541c1.25684 3.80664 2.86719 7.53516 4.85156 11.1543c6.93457 12.6494 25.3271 24.7158 51.6768 31.4209c17.291 4.39941 29.1514 11.8779 29.0811 20.2988c-0.0576172 11.498 -1.43848 15.8203 -5.61816 21.6133
c-0.173828 0.241211 -3.49414 4.69629 -4.62305 6.31055c-6.77832 9.69434 -14.8936 35.3164 -16.1104 48.791c-0.137695 1.5166 -0.137695 1.5166 -0.288086 3.19629c-1.46387 16.6846 -1.02441 29.0127 3.18359 42.4258c1.37109 4.37207 3.12207 8.57324 5.28223 12.5908
c11.1719 20.7715 33.2773 36.373 61.083 36.373c27.8066 0 49.9111 -15.6016 61.083 -36.373c2.16113 -4.01758 3.91113 -8.21875 5.28223 -12.5908c4.20703 -13.4092 4.64648 -25.7314 3.18457 -42.416c-0.150391 -1.68457 -0.150391 -1.68457 -0.289062 -3.20508
c-1.2168 -13.4756 -9.33203 -39.0977 -16.1094 -48.791c-1.12988 -1.61621 -4.44922 -6.06836 -4.625 -6.3125c-4.17871 -5.79102 -5.56055 -10.1133 -5.61719 -21.6475c-0.0693359 -8.38574 11.791 -15.8643 29.082 -20.2637zM324.92 129.059
c-26.3965 6.7168 -45.3408 18.6611 -45.1543 41.0791c0.0791016 15.9014 2.84473 24.5576 9.65039 33.9902c0.351562 0.487305 3.53711 4.75977 4.44141 6.05371c4.4375 6.34668 11.4414 28.458 12.3467 38.4854c0.139648 1.53711 0.139648 1.53711 0.283203 3.14844
c1.2373 14.124 0.882812 24.0605 -2.28809 34.168c-0.975586 3.11133 -2.20703 6.06836 -3.71484 8.87109c-7.7041 14.3242 -23.0361 25.1455 -42.2949 25.1455s-34.5908 -10.8213 -42.2949 -25.1455c-1.50781 -2.80273 -2.73926 -5.75977 -3.71484 -8.87109
c-3.17188 -10.1104 -3.52637 -20.0518 -2.28711 -34.1758c0.143555 -1.60645 0.143555 -1.60645 0.283203 -3.14062c0.905273 -10.0273 7.9082 -32.1387 12.3477 -38.4873c0.904297 -1.29395 4.08984 -5.56836 4.43945 -6.05273
c6.80469 -9.43164 9.57129 -18.0879 9.65039 -33.9531c0.186523 -22.4541 -18.7568 -34.3984 -45.1533 -41.1152c-21.0752 -5.3623 -34.4775 -14.1553 -38.2314 -21.002c-1.35059 -2.46387 -2.44531 -4.99805 -3.30078 -7.58984
c-2.98438 -9.03223 5.5332 -25.9297 11.5137 -25.9297l96.748 -0.00195312h0.833008h0.833008l96.749 0.00195312c5.50586 0 12.9707 16.4727 9.84473 25.9316c-0.856445 2.59473 -1.9502 5.12793 -3.29883 7.58887c-3.75391 6.8457 -17.1553 15.6387 -38.2305 21.001z" />
    <glyph glyph-name="uniF112" unicode="&#xf112;" 
d="M256 -21.333c-117.82 0 -213.333 95.5127 -213.333 213.333s95.5127 213.333 213.333 213.333s213.333 -95.5127 213.333 -213.333s-95.5127 -213.333 -213.333 -213.333zM234.667 157.675h39.3379v119.658h-39.3379v-119.658zM234.667 98.667h39.3379v39.3379h-39.3379
v-39.3379z" />
    <glyph glyph-name="uniF171" unicode="&#xf171;" 
d="M64 160v64h384v-64h-384z" />
    <glyph glyph-name="uniF134" unicode="&#xf134;" 
d="M256 -21.333c-117.82 0 -213.333 95.5127 -213.333 213.333s95.5127 213.333 213.333 213.333s213.333 -95.5127 213.333 -213.333s-95.5127 -213.333 -213.333 -213.333zM320.938 256.015l-90.0479 -90.0479l-33.6855 33.7061l-26.5381 -26.5811l56.3408 -56.3623
l3.88281 3.90332l3.9043 -3.90332l112.704 112.704z" />
    <glyph glyph-name="uniF10D" unicode="&#xf10d;" 
d="M253.406 74.2295c58.9648 0 111.04 20.6719 143.296 52.3516c2.21875 -5.22656 3.45605 -10.666 3.45605 -16.3193c0 -41.8135 -63.083 -73.3652 -146.752 -73.3652c-83.6484 0 -146.731 31.5518 -146.731 73.3652c0 5.65332 1.2373 11.0928 3.43555 16.3193
c32.2559 -31.6797 84.3301 -52.3516 143.296 -52.3516zM253.406 149.199c58.9648 0 111.04 20.6719 143.296 52.3516c2.21875 -5.22656 3.45605 -10.667 3.45605 -16.3203c0 -41.834 -63.083 -73.3652 -146.752 -73.3652c-83.6484 0 -146.731 31.5312 -146.731 73.3652
c0 5.65332 1.2373 11.0723 3.43555 16.2988c32.2559 -31.6582 84.3301 -52.3301 143.296 -52.3301zM253.406 194.583c-83.6484 0 -146.731 31.5527 -146.731 73.3867c0 41.835 63.083 73.3662 146.731 73.3662c83.6689 0 146.752 -31.5312 146.752 -73.3662
c0 -41.834 -63.083 -73.3867 -146.752 -73.3867z" />
    <glyph glyph-name="uniF170" unicode="&#xf170;" 
d="M143.163 270.896c-19.5869 -26.5488 -31.1631 -59.3691 -31.1631 -94.8955c0 -88.3701 71.6299 -160 160 -160c35.5264 0 68.3467 11.5762 94.8955 31.1631zM177.104 304.837l223.732 -223.732c19.5869 26.5488 31.1631 59.3691 31.1631 94.8955
c0 88.3701 -71.6299 160 -160 160c-35.5264 0 -68.3467 -11.5762 -94.8955 -31.1631zM272 -32c-114.88 0 -208 93.1201 -208 208s93.1201 208 208 208s208 -93.1201 208 -208s-93.1201 -208 -208 -208z" />
    <glyph glyph-name="uniF109" unicode="&#xf109;" 
d="M376 96l-120 115.2l-120 -115.2l-40 38.4004l120 115.199v0l40 38.4004l160 -153.6z" />
    <glyph glyph-name="uniF122" unicode="&#xf122;" 
d="M424 -32h-112v56h112v112h56v-112c0 -30.9404 -25.0596 -56 -56 -56v0zM424 360h-112v56h112c30.9404 0 56 -25.0596 56 -56v-112h-56v112v0zM32 24v112h56v-112h112v-56h-112c-30.9404 0 -56 25.0596 -56 56v0zM88 248h-56v112c0 30.9404 25.0596 56 56 56h112v-56h-112
v-112v0z" />
    <glyph glyph-name="uniF172" unicode="&#xf172;" 
d="M233.154 141.159c-0.00683594 0.420898 -0.198242 0.705078 -0.203125 1.0332c-0.670898 8.65527 -7.52441 15.6475 -16.5469 15.8076l-132.699 1.99707c-9.11621 0.163086 -16.3799 -7.43457 -16.2676 -16.3154c0.163086 -9.16211 7.39941 -16.6758 16.7725 -16.8184
l90.9658 -1.38477l-106.427 -106.427c-6.48438 -6.48438 -6.22656 -17.2646 0.149414 -23.6406c6.56543 -6.56543 17.0176 -6.77148 23.6406 -0.149414l108.064 108.065l1.43555 -94.2939c0.138672 -9.0918 7.9375 -16.6133 16.7949 -16.748
c9.18555 -0.139648 16.4824 6.87109 16.3398 16.2441zM290.021 233.231c0.00683594 -0.421875 0.198242 -0.706055 0.203125 -1.03418c0.670898 -8.6543 7.52441 -15.6465 16.5459 -15.8076l132.7 -1.99707c9.11523 -0.162109 16.3799 7.43457 16.2676 16.3154
c-0.163086 9.16309 -7.39941 16.6758 -16.7725 16.8184l-90.9658 1.38574l106.427 106.426c6.48438 6.48438 6.22656 17.2656 -0.149414 23.6406c-6.56641 6.56641 -17.0176 6.77246 -23.6406 0.149414l-108.065 -108.065l-1.43555 94.2939
c-0.137695 9.0918 -7.93652 16.6143 -16.7939 16.749c-9.18652 0.139648 -16.4824 -6.87109 -16.3398 -16.2441z" />
    <glyph glyph-name="uniF11B" unicode="&#xf11b;" 
d="M320 72l-38.4004 -40l-153.6 160l153.6 160l38.4004 -40l-115.2 -120z" />
  </font>
</defs>
</svg>
